<?xml version="1.0" standalone="no"?>
<!DOCTYPE svg PUBLIC "-//W3C//DTD SVG 20010904//EN"
 "http://www.w3.org/TR/2001/REC-SVG-20010904/DTD/svg10.dtd">
<svg version="1.0" xmlns="http://www.w3.org/2000/svg"
 width="736.000000pt" height="736.000000pt" viewBox="0 0 736.000000 736.000000"
 preserveAspectRatio="xMidYMid meet">

<g transform="translate(0.000000,736.000000) scale(0.100000,-0.100000)"
fill="#000000" stroke="none">
<path d="M0 4710 l0 -2650 670 0 c381 0 670 -4 670 -9 0 -5 9 -11 20 -14 11
-3 18 -1 15 3 -3 5 8 15 25 24 19 9 28 10 23 3 -4 -8 -1 -7 9 1 9 7 36 12 60
11 24 -2 50 1 58 6 9 5 11 4 6 -4 -6 -8 0 -10 21 -6 17 3 21 2 11 -2 -9 -5
-30 -20 -47 -36 -17 -15 -35 -26 -40 -25 -5 2 -9 -1 -9 -5 0 -5 -13 -23 -29
-40 -20 -22 -22 -27 -7 -16 19 12 182 147 210 174 21 20 128 110 143 122 9 6
13 15 8 19 -4 4 -18 -3 -32 -16 -21 -19 -25 -21 -25 -7 0 9 5 17 11 17 17 0
70 40 65 49 -3 4 2 8 10 8 10 0 8 -7 -8 -25 -50 -55 7 -12 101 76 55 51 102
89 105 84 9 -16 -98 -236 -169 -347 -127 -197 -228 -563 -244 -885 -9 -185 5
-910 19 -1030 6 -47 14 -109 17 -138 l6 -53 56 2 c40 2 58 7 63 18 6 14 7 14
7 -1 1 -10 6 -18 11 -18 13 0 15 -7 -29 100 -53 131 -119 336 -125 390 -3 25
-3 36 0 25 36 -122 105 -321 141 -407 l45 -108 1847 0 1847 0 32 88 c40 110
48 142 67 277 8 61 22 130 30 155 7 25 19 128 26 230 20 319 -6 936 -40 916
-4 -3 -7 12 -8 32 -1 20 -18 73 -38 117 -21 44 -50 123 -65 175 -16 52 -32
102 -35 111 -5 13 2 18 31 23 22 5 41 3 47 -3 16 -16 0 -26 -18 -11 -9 7 -18
11 -20 8 -8 -7 177 -188 193 -188 8 0 -2 15 -22 35 -20 19 -39 35 -42 35 -5 0
-74 68 -74 73 0 2 9 3 20 3 12 0 20 -7 20 -18 0 -9 9 -22 20 -28 17 -9 20 -8
20 9 0 14 -5 19 -15 15 -8 -4 -15 -1 -15 5 0 6 6 12 13 12 6 1 22 3 35 4 12 1
22 -2 22 -6 0 -5 366 -9 820 -9 l820 0 0 2650 0 2650 -3680 0 -3680 0 0 -2650z
m2324 1750 c14 -35 26 -71 25 -79 0 -15 -39 78 -60 144 -5 16 -8 57 -8 90 l2
60 8 -76 c4 -42 19 -105 33 -139z m196 76 c38 -66 86 -119 102 -114 7 3 19 -2
26 -11 10 -14 11 -13 5 4 -3 11 -11 26 -16 33 -18 23 43 -6 80 -38 19 -17 38
-30 43 -30 13 0 13 17 0 25 -5 3 -10 10 -10 15 0 6 17 -3 38 -18 35 -24 37
-28 23 -40 -13 -11 -12 -11 7 -2 19 9 27 9 40 -3 32 -27 40 -28 34 -5 l-5 21
21 -21 c12 -12 28 -22 36 -22 7 0 26 -12 42 -27 16 -15 31 -28 34 -28 3 0 30
-17 60 -36 77 -50 96 -59 119 -59 11 0 34 -13 51 -30 38 -37 60 -40 26 -3 -38
41 -24 39 36 -4 48 -36 144 -93 155 -93 2 0 2 9 -2 19 -5 18 0 17 47 -9 29
-15 68 -31 86 -35 22 -4 32 -12 32 -25 0 -27 11 -50 22 -50 6 0 44 34 84 76
42 43 74 69 74 60 0 -19 25 -12 58 17 12 11 22 17 22 12 0 -5 11 2 24 14 18
17 32 22 50 17 15 -4 26 -2 26 4 0 5 -8 10 -17 10 -16 1 -16 2 1 12 23 13 170
16 211 4 46 -13 19 9 -40 33 -75 30 -31 25 50 -6 120 -45 188 -97 249 -188 14
-22 26 -36 26 -32 0 17 -41 86 -80 135 -22 29 -38 52 -36 52 3 0 27 -14 55
-31 27 -17 56 -29 63 -27 8 3 0 12 -19 22 -18 9 -56 37 -85 62 l-51 46 44 -7
c130 -22 209 -75 429 -290 122 -119 246 -228 309 -272 2 -2 1 -6 -3 -10 -4 -4
-10 -3 -14 3 -4 6 -16 14 -26 18 -19 6 -19 6 -3 -12 9 -10 14 -22 10 -26 -9
-9 -10 -24 -18 -296 -3 -118 -10 -217 -15 -220 -5 -3 -5 -12 0 -20 14 -22 12
-40 -5 -40 -9 0 -18 -7 -21 -15 -4 -8 -14 -15 -23 -15 -10 0 -26 -7 -37 -15
-23 -17 -17 -18 22 -5 52 17 98 19 136 8 38 -11 168 -110 168 -127 0 -5 -21
11 -47 35 -60 56 -117 84 -170 84 -25 0 -92 -19 -170 -49 -70 -27 -195 -74
-276 -105 -196 -75 -253 -87 -417 -89 -74 -1 -144 -6 -154 -11 -15 -7 -17 -6
-11 4 5 8 3 11 -6 8 -8 -3 -16 -13 -18 -24 -2 -10 -10 -28 -18 -39 -12 -16
-14 -16 -10 -2 4 9 2 17 -4 17 -5 0 -12 -8 -15 -17 -11 -33 -24 -58 -23 -43 1
8 1 22 0 30 -1 13 -2 13 -11 0 -6 -10 -10 -11 -10 -2 0 6 -5 12 -11 12 -8 0
-9 -12 -5 -32 l6 -33 -15 25 c-13 23 -14 13 -12 -105 2 -125 1 -132 -24 -175
-15 -25 -36 -54 -48 -64 -14 -13 -21 -31 -21 -56 l0 -37 -86 -2 c-58 -1 -91 2
-102 11 -13 11 -14 11 -8 -1 6 -9 5 -12 -5 -9 -8 3 -13 15 -11 27 4 23 -56
139 -92 180 -11 13 -16 21 -10 18 12 -7 24 56 24 129 0 23 5 46 10 49 15 9 12
28 -4 22 -9 -4 -14 2 -15 16 -3 60 -22 107 -42 107 -6 0 -1 -13 11 -29 13 -20
17 -32 10 -36 -6 -4 -14 1 -16 11 -3 12 -15 20 -34 21 -23 2 -28 -1 -23 -14 5
-12 3 -14 -8 -8 -8 4 -1 -4 15 -19 51 -45 21 -39 -37 9 -35 28 -66 45 -82 45
-15 0 -38 9 -52 20 -27 21 -46 19 -25 -2 23 -23 11 -28 -55 -24 -75 5 -176 33
-268 75 -126 59 -303 131 -381 157 -65 21 -84 32 -98 56 -10 16 -15 32 -12 35
3 3 11 -6 17 -20 23 -51 35 -39 31 32 -6 121 30 675 62 931 1 14 4 35 4 47 2
17 6 21 19 16 12 -5 10 0 -6 16 -12 12 -20 28 -18 34 2 6 -6 19 -17 28 -20 15
-73 99 -63 99 2 0 16 -17 29 -38 35 -52 166 -183 173 -172 3 5 -6 21 -21 37
-23 25 -58 86 -78 138 -4 10 19 -6 51 -36 32 -30 76 -70 98 -90 22 -19 57 -54
78 -77 20 -23 37 -40 37 -37 0 11 -36 62 -77 108 -136 155 -224 308 -229 400
-2 29 -1 41 2 27 12 -65 38 -131 74 -190 22 -36 40 -60 40 -55 0 6 -9 24 -20
40 -11 17 -20 43 -20 58 0 16 -4 26 -9 23 -5 -4 -4 10 2 29 8 27 8 38 -2 48
-11 10 -13 7 -9 -15 3 -16 1 -28 -5 -28 -5 0 -7 15 -4 33 5 34 -19 93 -47 116
-9 8 -16 18 -16 23 0 19 30 -14 60 -66z m2410 -52 c76 -53 116 -89 74 -66 -29
16 -168 122 -160 122 3 0 42 -25 86 -56z m-2733 -66 c-3 -8 -6 -5 -6 6 -1 11
2 17 5 13 3 -3 4 -12 1 -19z m2968 -86 c-3 -3 -11 0 -18 7 -9 10 -8 11 6 5 10
-3 15 -9 12 -12z m-150 -206 l60 -24 -41 1 c-23 1 -40 5 -37 10 2 4 0 7 -6 7
-5 0 -18 3 -28 6 -12 4 -9 -2 10 -20 15 -14 25 -26 22 -26 -3 0 5 -15 19 -33
15 -19 26 -37 26 -42 0 -11 107 -143 148 -182 18 -18 29 -33 24 -33 -23 0
-119 115 -289 347 -30 41 -29 48 5 28 15 -8 54 -26 87 -39z m304 -362 c9 -8
-55 -2 -74 6 -13 6 -5 7 25 3 25 -3 47 -7 49 -9z m-79 -39 c19 -7 28 -14 20
-14 -8 0 -28 6 -45 14 -39 17 -21 18 25 0z m93 -2 c-7 -2 -19 -2 -25 0 -7 3
-2 5 12 5 14 0 19 -2 13 -5z m-243 -103 c0 -5 -2 -10 -4 -10 -3 0 -8 5 -11 10
-3 6 -1 10 4 10 6 0 11 -4 11 -10z m-15 -157 c-11 -62 -21 -111 -23 -108 -5 5
17 200 25 230 5 15 7 16 11 6 3 -8 -3 -65 -13 -128z m-3776 38 c8 -5 -10 -10
-52 -13 -46 -3 -73 -10 -89 -23 -23 -20 -23 -20 1 7 13 15 35 29 50 31 48 7
76 7 90 -2z m-13 -40 c-2 -3 3 -12 11 -20 13 -12 14 -11 9 7 -4 11 -3 23 3 26
13 9 74 -71 65 -85 -4 -7 -3 -9 4 -5 18 11 111 -128 96 -143 -7 -8 -35 30 -29
39 3 4 -1 13 -9 19 -11 9 -13 6 -12 -21 2 -19 7 -32 14 -30 14 2 16 -14 3 -22
-10 -7 -42 27 -58 62 -6 15 -12 21 -12 15 -1 -7 -6 -13 -12 -13 -6 0 -9 6 -6
13 3 8 -1 14 -9 14 -8 0 -14 -1 -14 -3 0 -1 31 -35 69 -75 38 -41 68 -75 66
-77 -16 -16 -185 173 -221 246 -28 55 -27 75 3 51 15 -12 16 -12 11 2 -5 13
-2 16 13 12 10 -3 17 -8 15 -12z m4817 -36 c36 -15 50 -29 60 -60 7 -19 6 -19
-7 -2 -15 19 -31 24 -20 5 4 -6 3 -8 -3 -5 -31 19 -101 23 -117 7 -8 -8 -4
-10 17 -5 17 5 27 3 27 -4 0 -6 -7 -8 -17 -4 -11 4 -14 3 -9 -5 4 -7 1 -12 -7
-12 -7 0 -24 -12 -38 -26 -32 -34 -109 -84 -128 -83 -10 0 -8 4 7 9 12 5 22
14 22 20 0 7 -9 9 -22 4 -13 -3 -23 -7 -24 -8 -19 -45 -23 -50 -23 -31 -1 29
18 93 30 101 19 11 21 -4 4 -30 -15 -22 -15 -26 -2 -26 9 0 19 17 26 45 11 45
35 64 28 23 -2 -13 -2 -17 0 -11 2 7 15 12 28 11 25 -2 24 -18 -2 -18 -10 0
-13 -6 -9 -16 5 -13 2 -15 -14 -11 -13 3 -20 0 -20 -8 0 -28 26 -20 59 17 18
21 40 38 48 38 10 0 12 6 8 20 -4 13 -2 20 7 20 10 0 9 3 -2 10 -11 8 -7 9 15
4 l30 -6 -28 19 c-15 11 -24 23 -20 28 5 4 0 5 -9 2 -10 -3 -20 -1 -24 5 -9
15 82 3 129 -17z m-116 -60 c0 -8 -4 -15 -9 -15 -4 0 -8 7 -8 15 0 8 4 15 8
15 5 0 9 -7 9 -15z m-27 -5 c0 -5 -7 -10 -16 -10 -8 0 -12 5 -9 10 3 6 10 10
16 10 5 0 9 -4 9 -10z m-4490 -140 c0 -5 -5 -10 -11 -10 -5 0 -7 5 -4 10 3 6
8 10 11 10 2 0 4 -4 4 -10z m-263 -177 c-2 -21 -4 -4 -4 37 0 41 2 58 4 38 2
-21 2 -55 0 -75z m-100 -50 c-2 -21 -4 -6 -4 32 0 39 2 55 4 38 2 -18 2 -50 0
-70z m1273 29 c0 -4 -18 -13 -40 -19 -48 -12 -51 -8 -7 11 38 17 47 19 47 8z
m-90 -36 c0 -3 -4 -8 -10 -11 -5 -3 -10 -1 -10 4 0 6 5 11 10 11 6 0 10 -2 10
-4z m111 -201 c-17 -20 -31 -41 -31 -48 0 -7 10 -1 21 13 l21 25 -16 -25 c-9
-14 -19 -32 -23 -40 -3 -8 -13 -31 -21 -50 -8 -19 -16 -30 -19 -23 -2 6 5 29
16 51 11 22 17 42 14 45 -7 8 24 57 46 74 27 21 24 15 -8 -22z m-71 -187 c0
-18 -2 -20 -9 -8 -6 8 -7 18 -5 22 9 14 14 9 14 -14z m2290 -62 c0 -9 -8 -12
-25 -8 -14 2 -25 8 -25 13 0 5 11 9 25 9 14 0 25 -6 25 -14z m-1882 -34 c4
-27 -14 -29 -47 -5 -23 16 -23 17 -5 24 30 12 49 6 52 -19z m2217 -26 c7 -10
20 -13 36 -9 l24 5 -25 -18 c-14 -11 -41 -27 -60 -36 -19 -9 -29 -17 -22 -17
16 -1 86 34 124 62 15 11 30 19 32 16 11 -10 -36 -50 -92 -78 -103 -52 -171
-63 -414 -65 -119 -1 -212 2 -205 6 7 4 38 8 69 8 31 0 60 5 63 10 3 6 -4 10
-17 11 l-23 0 22 11 c13 6 25 19 28 28 6 18 59 35 77 24 5 -4 24 0 41 9 51 24
101 37 106 29 12 -15 62 -43 70 -38 5 3 14 20 21 37 13 31 14 31 74 26 37 -3
64 -11 71 -21z m-2335 -26 c10 -24 17 -28 50 -26 22 1 43 6 47 11 4 4 2 5 -4
1 -8 -4 -13 -2 -13 5 0 8 12 10 38 5 20 -3 49 -6 63 -6 31 0 60 -47 37 -61
-26 -17 -104 -10 -131 11 -22 18 -57 19 -57 1 0 -16 88 -51 131 -51 41 0 109
23 109 37 0 3 -11 14 -26 25 -35 28 -24 32 32 13 69 -23 81 -35 52 -52 -21
-11 -18 -12 27 -7 56 6 46 -9 -15 -22 -63 -13 -328 -16 -378 -4 -26 6 -59 14
-74 17 -15 3 -25 9 -22 14 3 5 -2 6 -10 3 -19 -7 -49 9 -52 28 -1 8 12 23 28
33 21 12 27 20 18 25 -8 5 8 12 41 17 87 15 96 13 109 -17z m2160 20 c0 -5 -4
-10 -9 -10 -6 0 -13 5 -16 10 -3 6 1 10 9 10 9 0 16 -4 16 -10z m-2095 -20
c-3 -5 -11 -10 -16 -10 -6 0 -7 5 -4 10 3 6 11 10 16 10 6 0 7 -4 4 -10z m262
-32 c-3 -8 -6 -5 -6 6 -1 11 2 17 5 13 3 -3 4 -12 1 -19z m2322 5 c-12 -14
-12 -16 2 -11 32 12 50 -105 29 -184 -7 -23 -15 -36 -21 -32 -7 4 -10 -1 -7
-12 1 -9 -9 -30 -24 -45 -17 -16 -30 -43 -34 -68 -4 -23 -11 -44 -15 -47 -5
-3 -9 -18 -9 -33 0 -15 -7 -36 -15 -47 -8 -10 -15 -28 -15 -40 0 -11 -5 -25
-11 -31 -5 -5 -14 -38 -19 -72 -9 -62 -29 -121 -42 -121 -4 0 -10 -27 -14 -61
-4 -33 -13 -66 -20 -74 -18 -17 -18 -25 1 -25 12 0 12 -6 0 -47 -8 -27 -15
-58 -15 -70 0 -12 -6 -28 -12 -35 -26 -27 -49 -90 -38 -103 8 -10 3 -15 -20
-23 -23 -8 -30 -17 -30 -36 0 -14 -5 -28 -10 -31 -6 -4 -10 -16 -9 -28 1 -12
1 -41 1 -64 -2 -36 -5 -43 -22 -43 -15 0 -20 -7 -20 -25 0 -14 -10 -39 -21
-55 -12 -15 -23 -46 -25 -67 -2 -21 -7 -67 -10 -102 -5 -45 -3 -65 6 -71 9 -6
9 -12 1 -29 -7 -11 -16 -21 -21 -21 -6 0 -10 -18 -10 -39 0 -26 -5 -41 -16
-45 -9 -3 -14 -13 -10 -21 3 -8 1 -17 -5 -21 -5 -3 -7 -14 -4 -24 3 -10 -1
-24 -8 -32 -8 -7 -17 -30 -21 -51 -7 -40 -50 -87 -78 -87 -10 0 -18 -7 -18
-15 0 -16 -12 -18 -47 -9 -12 3 -19 12 -17 19 3 6 -7 20 -21 29 -16 11 -24 23
-21 32 3 8 2 13 -3 10 -4 -3 -16 3 -26 14 -10 12 -13 20 -7 20 7 0 12 -4 12
-10 0 -5 5 -10 10 -10 19 0 9 15 -32 47 -38 32 -65 35 -54 8 3 -9 -2 -11 -16
-7 -16 4 -19 2 -13 -9 6 -11 5 -12 -6 -1 -16 14 -29 16 -29 2 0 -5 12 -16 28
-24 15 -8 21 -15 13 -16 -8 0 -33 11 -55 23 -77 45 -176 62 -341 61 -127 -1
-159 -4 -209 -22 -79 -29 -112 -28 -188 8 -57 27 -73 30 -163 30 -130 0 -242
-22 -335 -64 -41 -19 -88 -38 -105 -41 l-30 -6 31 16 c17 9 31 21 31 28 0 19
-49 14 -83 -8 -43 -28 -114 -93 -114 -105 0 -5 -4 -10 -10 -10 -5 0 -10 8 -10
18 0 11 -3 13 -8 5 -6 -10 -66 -16 -129 -14 -13 1 -24 10 -29 24 -3 12 -11 28
-17 35 -5 7 -11 29 -13 49 -2 20 -8 41 -14 47 -5 5 -10 18 -10 28 0 10 -16 40
-35 68 -20 29 -32 56 -29 65 4 10 2 13 -8 10 -10 -4 -20 10 -33 47 -11 29 -18
60 -17 68 1 8 -4 4 -10 -9 -10 -20 -8 -31 17 -80 16 -31 35 -62 42 -69 7 -7
13 -22 13 -32 0 -10 6 -25 14 -32 20 -21 48 -78 43 -91 -4 -12 -36 44 -110
191 -38 75 -48 105 -39 111 13 8 11 58 -2 79 -4 7 -1 24 8 37 18 28 21 45 6
45 -5 0 -10 -9 -10 -20 0 -11 -6 -20 -14 -20 -17 0 -32 53 -17 58 11 4 -22 69
-40 82 -4 3 -10 30 -14 60 -4 30 -11 60 -15 65 -15 20 -42 125 -36 140 3 9 2
14 -3 10 -18 -10 -43 93 -37 148 3 29 6 59 6 67 1 29 -33 235 -40 240 -4 3
-15 21 -26 40 -10 19 -30 51 -44 70 -57 78 -72 123 -66 191 3 35 7 78 9 95 1
17 10 42 20 57 9 14 17 31 17 36 0 5 12 11 28 13 19 2 28 9 30 25 2 12 11 27
19 35 15 11 16 11 10 -5 -4 -11 -3 -16 4 -12 5 4 29 -5 52 -20 l42 -26 -49 46
c-26 25 -45 49 -42 53 4 3 37 -24 74 -61 63 -63 152 -127 216 -155 52 -23 37
-6 -34 38 -38 24 -68 46 -65 48 2 2 12 -1 22 -6 25 -13 47 -4 33 13 -8 10 3
14 50 19 33 4 64 5 68 2 5 -3 22 -1 38 4 23 8 13 9 -43 7 -40 -1 -73 1 -73 5
0 4 -12 15 -27 23 -27 16 -27 16 -3 9 14 -4 86 -9 160 -11 115 -4 131 -7 111
-18 l-24 -12 24 -17 c19 -13 21 -18 11 -25 -19 -11 24 -22 58 -15 18 4 21 3
11 -4 -8 -6 -54 -13 -104 -17 -56 -5 -84 -11 -76 -16 17 -10 151 -3 198 11 19
5 36 8 39 6 2 -2 -7 -7 -20 -11 -13 -3 -36 -12 -53 -20 -16 -7 -46 -18 -65
-24 l-35 -11 46 4 c27 2 90 22 150 49 143 63 236 97 269 97 15 0 41 5 59 11
24 8 35 8 46 -1 8 -7 22 -10 30 -6 18 6 19 2 5 -25 -10 -17 -8 -18 14 -10 30
12 66 3 60 -14 -3 -7 4 -16 15 -20 12 -3 21 -13 21 -21 0 -8 7 -17 15 -20 8
-4 15 -17 15 -31 0 -13 4 -21 10 -18 6 3 10 15 10 26 0 11 4 17 10 14 5 -3 12
6 16 20 3 14 11 25 18 26 9 1 190 0 231 -1 6 0 21 -20 35 -45 14 -25 28 -45
32 -45 16 0 17 20 1 36 -16 16 -16 16 5 10 16 -6 22 -3 22 8 0 10 9 16 23 16
18 0 19 -2 7 -10 -27 -18 -1 -10 41 11 22 12 43 28 46 35 4 10 10 11 24 3 22
-11 24 -6 8 23 -9 18 -8 19 10 13 12 -4 21 -2 21 4 0 7 27 11 69 11 55 0 95
-9 202 -45 137 -46 195 -58 124 -25 -54 25 -22 25 50 0 32 -11 74 -20 94 -19
33 0 31 2 -24 19 -33 10 -80 25 -105 33 l-45 15 60 -5 c33 -3 68 -10 77 -14
26 -14 35 -10 14 6 -11 8 -17 17 -14 20 3 3 55 10 116 15 61 5 120 14 131 19
11 6 27 11 36 11 31 0 5 -17 -52 -35 -74 -24 -54 -31 27 -10 61 16 106 13 94
-6 -3 -6 -27 -23 -52 -39 -59 -37 -50 -38 25 -3 39 18 82 51 129 100 40 40 77
73 84 73 6 0 9 4 6 9 -8 13 20 23 84 31 96 12 94 12 79 -7z m-496 -110 c-7 -2
-19 -2 -25 0 -7 3 -2 5 12 5 14 0 19 -2 13 -5z m-80 -10 c-13 -2 -33 -2 -45 0
-13 2 -3 4 22 4 25 0 35 -2 23 -4z m-1163 -103 c0 -5 -5 -10 -11 -10 -5 0 -7
5 -4 10 3 6 8 10 11 10 2 0 4 -4 4 -10z m325 0 c-3 -5 -12 -7 -20 -3 -21 7
-19 13 6 13 11 0 18 -4 14 -10z m-2310 -72 c9 -16 15 -28 11 -28 -7 0 -56 76
-56 87 0 7 11 -7 45 -59z m35 -58 c6 -11 8 -20 6 -20 -3 0 -10 9 -16 20 -6 11
-8 20 -6 20 3 0 10 -9 16 -20z m3313 -1130 c-3 -11 -7 -20 -9 -20 -2 0 -4 9
-4 20 0 11 4 20 9 20 5 0 7 -9 4 -20z m17 -129 c0 -5 -7 -12 -16 -15 -14 -5
-15 -4 -4 9 14 17 20 19 20 6z m-2943 -273 c-3 -8 -6 -5 -6 6 -1 11 2 17 5 13
3 -3 4 -12 1 -19z m3358 -108 c3 -6 -1 -7 -9 -4 -18 7 -21 14 -7 14 6 0 13 -4
16 -10z m-1380 -60 c15 -7 10 -9 -24 -9 -37 -1 -42 -3 -31 -16 7 -8 25 -15 41
-15 16 0 29 -4 29 -8 0 -16 -36 -42 -68 -48 -18 -4 -32 -10 -32 -15 0 -11 14
-11 62 0 21 5 36 5 33 1 -3 -5 1 -10 9 -12 8 -2 -14 -13 -50 -25 -55 -18 -64
-19 -64 -6 0 9 6 13 15 9 8 -3 15 -1 15 4 0 6 -8 10 -17 10 -12 0 -26 18 -39
48 l-20 47 -100 -1 c-54 -1 -105 -2 -111 -3 -7 0 -19 -17 -27 -36 -10 -24 -20
-33 -30 -30 -9 3 -23 7 -32 10 -8 3 -12 9 -9 15 4 7 12 7 25 0 15 -8 21 -6 30
10 6 12 7 20 1 20 -5 0 -11 -5 -13 -12 -2 -6 -9 -8 -16 -4 -15 9 -4 36 15 36
8 0 11 4 8 10 -4 6 30 8 97 4 73 -3 119 -1 158 9 63 17 116 19 145 7z m-908
-45 c21 -8 94 -33 163 -55 69 -22 166 -54 215 -71 81 -29 104 -32 235 -36 165
-5 347 20 419 56 22 12 66 30 98 42 32 11 90 34 130 50 70 28 146 38 158 20 3
-5 19 -12 36 -16 17 -4 33 -13 36 -21 3 -8 12 -14 20 -14 12 0 14 -8 8 -37 -4
-21 -13 -50 -21 -65 -8 -15 -14 -36 -14 -47 0 -11 -4 -23 -10 -26 -15 -9 -12
-25 5 -25 8 0 15 -4 15 -10 0 -5 -6 -10 -14 -10 -8 0 -20 -13 -28 -30 -7 -16
-19 -30 -25 -30 -7 0 -13 -5 -13 -10 0 -6 -11 -15 -25 -20 -31 -12 -32 -26 -4
-33 12 -3 18 -10 15 -16 -4 -5 -2 -12 4 -16 13 -8 13 -25 -1 -25 -6 0 -13 9
-16 20 -5 18 -13 21 -54 19 l-49 -3 0 -52 c0 -42 3 -53 19 -57 13 -3 20 -16
23 -42 5 -43 -19 -165 -33 -165 -5 0 -9 -7 -9 -15 0 -8 -7 -15 -15 -15 -8 0
-24 -13 -37 -30 -15 -21 -30 -30 -50 -30 -22 0 -31 -6 -39 -27 -8 -22 -12 -24
-19 -13 -8 13 -12 12 -27 -3 -15 -14 -15 -19 -4 -26 17 -11 -2 -23 -23 -15
-12 5 -16 0 -16 -17 0 -18 -2 -21 -9 -10 -8 12 -16 9 -45 -17 -20 -17 -37 -35
-38 -39 -9 -38 -622 -78 -673 -45 -18 12 -15 13 25 9 25 -3 36 -3 26 0 -15 4
-16 7 -5 14 9 6 3 7 -18 3 -26 -5 -33 -2 -44 17 -7 13 -24 34 -38 46 -22 19
-23 23 -8 23 17 0 17 1 2 16 -9 10 -24 14 -37 11 -14 -4 -26 0 -34 11 -18 23
-17 35 2 28 25 -9 35 3 23 26 -9 17 -13 18 -20 7 -7 -11 -9 -11 -9 2 0 9 -7
22 -16 29 -8 8 -29 41 -45 74 -29 57 -30 65 -20 111 16 76 25 195 15 195 -5 0
-8 18 -6 40 4 37 2 40 -20 40 -13 0 -30 -6 -37 -12 -11 -10 -14 -10 -18 0 -3
6 -14 12 -26 12 -12 0 -42 7 -67 15 -25 8 -57 17 -73 20 -15 3 -36 14 -46 24
-10 10 -31 23 -47 28 -20 6 -32 19 -39 41 -5 18 -13 32 -17 32 -4 0 -8 7 -8
16 0 13 4 11 18 -6 21 -25 42 -20 42 10 0 10 9 22 20 25 20 6 28 35 10 35 -5
0 -10 4 -10 10 0 5 18 13 40 16 22 4 40 10 40 15 0 5 -18 9 -40 9 -22 0 -40 5
-40 11 0 6 18 10 43 9 56 -3 113 10 95 21 -23 15 59 10 99 -6z m579 -4 c-7
-11 87 -21 136 -15 33 4 39 1 53 -25 8 -17 15 -37 15 -45 0 -8 6 -16 13 -19 8
-3 9 -8 2 -15 -15 -15 -241 -27 -249 -13 -5 7 4 9 26 5 42 -8 27 11 -18 23
l-32 8 22 52 c11 29 25 53 29 53 5 0 6 -4 3 -9z m-836 -41 c0 -29 -4 -40 -15
-40 -11 0 -15 11 -15 40 0 29 4 40 15 40 11 0 15 -11 15 -40z m2700 -61 c0 -6
-4 -7 -10 -4 -5 3 -10 11 -10 16 0 6 5 7 10 4 6 -3 10 -11 10 -16z m-3734 0
c4 -8 -1 -9 -17 -4 -18 5 -20 4 -9 -4 13 -9 12 -13 -8 -28 -13 -10 -42 -35
-64 -56 -43 -40 -65 -44 -28 -5 12 13 26 34 31 48 9 25 53 59 76 60 6 0 15 -5
19 -11z m3768 -5 c9 -24 7 -28 -9 -14 -17 14 -20 30 -6 30 5 0 12 -7 15 -16z
m-3890 -31 c4 -9 1 -20 -6 -25 -10 -6 -10 -8 2 -8 13 0 13 -1 0 -10 -17 -11
-19 -9 -25 20 -7 38 16 57 29 23z m3971 7 c3 -5 -1 -10 -10 -10 -9 0 -13 5
-10 10 3 6 8 10 10 10 2 0 7 -4 10 -10z m-76 -12 c14 5 14 4 2 -11 -12 -15
-11 -17 3 -17 9 0 16 4 16 10 0 5 8 6 17 3 15 -6 15 -7 -3 -14 -31 -12 -54
-10 -54 6 0 8 -4 15 -10 15 -5 0 -10 5 -10 12 0 9 3 9 11 1 6 -6 19 -9 28 -5z
m-3220 -263 c15 -16 54 -52 86 -80 74 -62 105 -91 85 -80 -37 21 -159 127
-191 166 -40 50 -62 87 -29 49 12 -13 34 -38 49 -55z m2681 -92 c-26 -30 -92
-95 -155 -152 -43 -40 -29 -15 22 36 18 18 30 39 27 47 -3 8 -1 17 5 21 7 3 8
0 5 -9 -11 -29 11 -16 61 34 53 54 73 67 35 23z m-2430 -119 c0 -3 -13 4 -30
16 -16 12 -30 24 -30 26 0 3 14 -4 30 -16 17 -12 30 -24 30 -26z m597 -250 c2
-13 1 -15 -4 -4 -3 8 -11 19 -17 23 -7 6 -6 7 4 4 8 -2 16 -12 17 -23z m32
-58 c-3 -3 -11 5 -18 17 -13 21 -12 21 5 5 10 -10 16 -20 13 -22z m-265 -956
c74 -49 94 -67 58 -56 -11 4 -22 -2 -30 -14 -12 -20 -5 -27 14 -12 5 4 4 1 -2
-6 -9 -11 -20 -7 -57 20 -51 37 -56 47 -27 55 28 7 25 19 -10 33 -17 7 -33 17
-36 21 -12 20 18 6 90 -41z m-1245 -154 c-5 -22 -7 -9 -7 44 0 65 1 69 8 31 4
-24 3 -58 -1 -75z m3081 90 c0 -3 -4 -8 -10 -11 -5 -3 -10 -1 -10 4 0 6 5 11
10 11 6 0 10 -2 10 -4z m-41 -48 c-10 -18 -8 -24 11 -38 22 -17 22 -17 4 -38
-19 -22 -39 -27 -68 -16 -23 9 -20 20 21 70 41 49 49 55 32 22z m61 -23 c0 -8
-4 -15 -10 -15 -5 0 -7 7 -4 15 4 8 8 15 10 15 2 0 4 -7 4 -15z m-2280 -125
c0 -5 -2 -10 -4 -10 -3 0 -8 5 -11 10 -3 6 -1 10 4 10 6 0 11 -4 11 -10z m79
-47 c25 -20 50 -40 55 -44 4 -4 -6 -15 -23 -23 l-31 -16 -51 51 c-28 28 -48
54 -44 57 4 4 11 -1 16 -11 11 -18 49 -24 49 -7 0 6 -7 10 -15 10 -8 0 -15 5
-15 10 0 17 11 12 59 -27z m-860 -62 c12 -30 19 -56 16 -59 -2 -3 -8 4 -11 14
-4 10 -15 38 -25 61 -11 23 -19 50 -18 60 0 20 0 20 38 -76z m61 9 c0 -13 -1
-13 -10 0 -5 8 -10 22 -10 30 0 13 1 13 10 0 5 -8 10 -22 10 -30z m-26 -2 c10
-38 6 -45 -9 -18 -17 29 -18 40 -6 40 5 0 11 -10 15 -22z"/>
<path d="M2560 6415 c-8 -9 -8 -15 -2 -15 12 0 26 19 19 26 -2 2 -10 -2 -17
-11z"/>
<path d="M2660 6426 c0 -2 7 -9 15 -16 13 -11 14 -10 9 4 -5 14 -24 23 -24 12z"/>
<path d="M2601 6253 c-1 -17 16 -25 25 -12 4 7 3 9 -4 5 -5 -3 -13 0 -15 6 -4
9 -6 10 -6 1z"/>
<path d="M2635 6219 c-4 -6 -5 -12 -2 -15 2 -3 7 2 10 11 7 17 1 20 -8 4z"/>
<path d="M2650 6193 c0 -13 29 -38 35 -31 3 3 -4 13 -15 23 -11 10 -20 13 -20
8z"/>
<path d="M2570 6150 c0 -5 10 -15 23 -21 22 -12 22 -12 3 10 -21 23 -26 26
-26 11z"/>
<path d="M4636 5490 c3 -30 7 -57 10 -59 10 -11 10 8 -2 59 l-13 55 5 -55z"/>
<path d="M2458 5297 c-3 -19 -2 -25 4 -19 6 6 8 18 6 28 -3 14 -5 12 -10 -9z"/>
<path d="M2460 5027 c8 -9 29 -18 45 -21 17 -4 23 -3 15 0 -8 4 -28 13 -45 21
-27 14 -29 14 -15 0z"/>
<path d="M3330 4756 c0 -2 7 -7 16 -10 8 -3 12 -2 9 4 -6 10 -25 14 -25 6z"/>
<path d="M1275 5429 c-4 -6 -5 -12 -2 -15 2 -3 7 2 10 11 7 17 1 20 -8 4z"/>
<path d="M1322 5427 c-7 -8 -7 -17 2 -29 12 -16 13 -15 12 12 -1 35 0 34 -14
17z"/>
<path d="M1287 5406 c-10 -26 -8 -33 4 -16 9 12 10 11 6 -6 -2 -11 2 -29 9
-39 14 -18 14 -18 14 1 -1 10 -7 32 -14 49 -10 25 -13 27 -19 11z"/>
<path d="M1343 5346 c-2 -18 -1 -19 8 -4 5 10 18 15 31 13 11 -3 18 -1 14 2
-4 4 -17 8 -29 8 -17 1 -23 -4 -24 -19z"/>
<path d="M1399 5313 c-11 -13 -11 -17 -1 -20 6 -3 9 -10 5 -16 -3 -7 -2 -9 2
-4 7 6 15 57 9 57 -1 0 -8 -7 -15 -17z"/>
<path d="M6043 5410 c20 -16 35 -20 53 -16 17 5 23 3 19 -4 -3 -5 -1 -10 4
-10 6 0 11 5 11 10 0 12 -39 28 -85 37 l-30 6 28 -23z"/>
<path d="M4540 4418 c-25 -10 -25 -10 15 -28 22 -10 62 -19 89 -19 51 -1 116
17 116 31 0 18 -32 20 -50 3 -15 -14 -29 -16 -67 -10 -26 4 -55 13 -63 20 -11
9 -22 10 -40 3z"/>
<path d="M4870 4389 c0 -5 5 -7 10 -4 6 3 10 8 10 11 0 2 -4 4 -10 4 -5 0 -10
-5 -10 -11z"/>
<path d="M4740 4370 c-13 -9 -13 -10 0 -9 8 1 26 5 40 9 l25 8 -25 1 c-14 0
-32 -4 -40 -9z"/>
<path d="M2878 4343 c7 -3 16 -2 19 1 4 3 -2 6 -13 5 -11 0 -14 -3 -6 -6z"/>
<path d="M2715 4260 c-3 -6 1 -7 9 -4 18 7 21 14 7 14 -6 0 -13 -4 -16 -10z"/>
<path d="M4605 4230 c-4 -6 9 -10 31 -10 42 0 42 4 2 14 -15 3 -30 2 -33 -4z"/>
<path d="M2628 4193 c6 -2 18 -2 25 0 6 3 1 5 -13 5 -14 0 -19 -2 -12 -5z"/>
<path d="M3441 4174 c0 -11 3 -14 6 -6 3 7 2 16 -1 19 -3 4 -6 -2 -5 -13z"/>
<path d="M3950 4034 l-35 -14 40 5 c22 3 51 5 65 5 20 0 22 2 10 10 -20 13
-38 11 -80 -6z"/>
<path d="M3450 3984 c0 -8 5 -12 10 -9 6 3 10 10 10 16 0 5 -4 9 -10 9 -5 0
-10 -7 -10 -16z"/>
<path d="M3491 3979 c-1 -33 -10 -42 -28 -28 -10 9 -13 7 -13 -9 0 -11 -13
-31 -29 -45 -27 -22 -30 -29 -27 -78 2 -30 1 -37 -1 -16 -3 27 -9 37 -22 37
-13 0 -21 -13 -29 -51 -7 -28 -12 -62 -12 -75 0 -14 -5 -34 -11 -45 -8 -16 -7
-25 4 -37 8 -9 17 -40 19 -69 l3 -51 -27 16 c-26 15 -27 15 -62 -24 -31 -34
-54 -73 -86 -149 -5 -11 -19 -42 -31 -70 -42 -94 -22 -197 51 -258 17 -15 74
-40 127 -57 102 -33 140 -49 114 -50 -10 0 -5 -10 14 -30 24 -25 26 -30 12
-36 -10 -3 -17 -17 -17 -30 0 -17 4 -22 15 -18 8 4 22 1 30 -6 8 -7 21 -10 30
-7 8 4 17 2 21 -4 3 -5 14 -7 25 -4 22 7 25 -5 7 -24 -11 -11 -9 -13 10 -8 15
4 22 1 22 -10 0 -9 6 -13 15 -9 19 7 19 -6 0 -68 -8 -27 -15 -55 -15 -62 0
-20 64 -64 102 -70 39 -6 71 11 50 25 -10 6 -11 13 -4 27 6 11 16 45 23 77 13
60 17 65 38 45 11 -11 13 -10 8 5 -4 11 -3 16 3 12 13 -8 52 14 45 26 -4 5 -1
9 4 9 6 0 11 6 11 14 0 7 10 17 23 21 12 4 25 8 30 10 4 1 13 3 21 4 7 0 24
11 38 24 20 19 23 26 14 42 -6 11 -17 24 -23 28 -17 11 -16 27 1 27 8 0 18 9
21 21 4 13 12 18 21 15 8 -3 12 -1 9 4 -3 5 29 20 71 32 66 20 81 28 105 61
15 21 36 59 45 84 16 40 16 52 5 102 -7 31 -14 65 -15 76 -2 29 -126 214 -148
221 -13 4 -18 16 -18 40 0 39 -12 44 -28 12 -8 -18 -11 -19 -11 -5 -1 9 -7 17
-15 17 -9 0 -12 -9 -10 -27 3 -22 1 -20 -7 7 -6 19 -17 42 -26 52 -8 9 -16 24
-17 33 -1 9 -10 25 -20 37 -14 16 -15 22 -5 28 9 6 9 12 -4 25 -10 9 -17 23
-17 31 0 11 -6 13 -20 9 -13 -4 -23 0 -32 14 -7 12 -16 21 -20 21 -5 0 -13
-113 -19 -275 -1 -27 -4 -44 -7 -36 -3 10 -6 10 -12 1 -10 -17 8 -80 29 -105
24 -27 64 -112 59 -127 -2 -6 6 -22 19 -36 13 -14 23 -33 23 -43 0 -11 7 -19
15 -19 8 0 15 -2 15 -5 0 -14 -31 -65 -39 -65 -5 0 -39 -40 -75 -89 -37 -49
-74 -92 -82 -95 -50 -19 -105 8 -179 88 -46 49 -85 76 -111 76 -18 0 -24 6
-24 21 0 11 5 17 10 14 6 -4 10 8 10 29 0 38 41 177 72 243 11 24 20 55 21 70
2 61 -3 114 -11 109 -5 -3 -9 53 -10 124 -1 85 -6 138 -14 152 -7 13 -20 48
-30 78 -11 37 -17 47 -17 29z m346 -491 c-3 -8 -6 -5 -6 6 -1 11 2 17 5 13 3
-3 4 -12 1 -19z m-334 -150 c-11 -24 -26 -65 -33 -91 -7 -26 -15 -45 -18 -43
-6 7 25 112 46 153 24 47 28 31 5 -19z m687 -23 c0 -5 -5 -3 -10 5 -5 8 -10
20 -10 25 0 6 5 3 10 -5 5 -8 10 -19 10 -25z m-1010 -26 c-12 -23 -22 -57 -23
-76 -1 -20 -4 -28 -9 -20 -6 9 -8 9 -8 -2 0 -8 -3 -12 -6 -9 -7 8 19 83 42
125 27 46 29 33 4 -18z m984 -67 c-19 -17 -64 -32 -64 -21 0 5 15 16 33 24 32
13 49 12 31 -3z m54 -13 c-14 -4 -54 -21 -89 -39 -37 -19 -57 -25 -49 -16 20
25 130 75 148 68 13 -4 10 -7 -10 -13z"/>
<path d="M2820 3708 c-55 -20 -84 -38 -63 -38 14 0 123 48 123 55 0 6 5 8 -60
-17z"/>
<path d="M2716 3640 c-54 -21 -89 -48 -46 -35 32 10 118 54 105 54 -5 0 -32
-9 -59 -19z"/>
<path d="M3757 3643 c-10 -15 9 -135 28 -176 19 -45 18 -12 -3 98 -10 49 -21
84 -25 78z"/>
<path d="M3801 3564 c0 -11 3 -14 6 -6 3 7 2 16 -1 19 -3 4 -6 -2 -5 -13z"/>
<path d="M4270 3347 c0 -8 7 -20 15 -27 8 -7 25 -32 37 -56 21 -43 44 -62 31
-26 -17 44 -83 132 -83 109z"/>
<path d="M4270 3304 c0 -6 7 -19 15 -30 8 -10 14 -14 14 -9 0 6 -6 19 -14 29
-8 11 -15 15 -15 10z"/>
<path d="M3503 3175 c-3 -9 -3 -18 -1 -21 3 -3 8 4 11 16 6 23 -1 27 -10 5z"/>
<path d="M2470 2865 c0 -18 19 -40 26 -32 4 4 0 15 -9 24 -9 10 -17 13 -17 8z"/>
<path d="M3315 2780 c-3 -5 -1 -10 4 -10 6 0 11 5 11 10 0 6 -2 10 -4 10 -3 0
-8 -4 -11 -10z"/>
<path d="M3280 2759 c0 -5 5 -7 10 -4 6 3 10 8 10 11 0 2 -4 4 -10 4 -5 0 -10
-5 -10 -11z"/>
<path d="M3254 2585 c-3 -8 -3 -19 1 -25 3 -6 -3 -10 -17 -10 -17 0 -19 -3 -9
-9 11 -7 11 -10 0 -15 -8 -3 0 -4 16 -1 17 3 59 10 95 16 82 14 91 22 20 19
-77 -3 -80 -3 -80 20 0 23 -18 27 -26 5z"/>
<path d="M3295 2590 c-4 -6 -3 -16 3 -22 6 -6 12 -6 17 2 4 6 3 16 -3 22 -6 6
-12 6 -17 -2z"/>
<path d="M4078 2543 c6 -2 18 -2 25 0 6 3 1 5 -13 5 -14 0 -19 -2 -12 -5z"/>
<path d="M3190 2530 c-9 -6 -10 -10 -3 -10 6 0 15 5 18 10 8 12 4 12 -15 0z"/>
<path d="M3637 2519 c7 -7 15 -10 18 -7 3 3 -2 9 -12 12 -14 6 -15 5 -6 -5z"/>
<path d="M4385 2520 c3 -5 8 -10 11 -10 2 0 4 5 4 10 0 6 -5 10 -11 10 -5 0
-7 -4 -4 -10z"/>
<path d="M4260 2516 c0 -2 7 -7 16 -10 8 -3 12 -2 9 4 -6 10 -25 14 -25 6z"/>
<path d="M3124 2494 c-18 -14 -18 -15 4 -4 12 6 22 13 22 15 0 8 -5 6 -26 -11z"/>
<path d="M3065 2470 c-8 -13 5 -13 25 0 13 8 13 10 -2 10 -9 0 -20 -4 -23 -10z"/>
<path d="M3910 2240 c-9 -6 -10 -10 -3 -10 6 0 15 5 18 10 8 12 4 12 -15 0z"/>
<path d="M4135 2231 c-11 -3 -33 -13 -50 -22 -40 -22 -251 -66 -350 -75 -97
-8 -202 7 -305 43 -91 31 -168 38 -205 19 -23 -12 -24 -15 -8 -18 14 -4 10 -9
-20 -23 -24 -12 -33 -21 -25 -26 7 -5 11 -24 9 -48 -1 -23 2 -41 7 -41 5 0 12
-9 15 -20 3 -12 14 -20 26 -20 12 0 24 -7 27 -15 4 -8 18 -15 33 -16 37 0 97
-22 93 -34 -5 -15 30 -23 76 -18 28 4 42 2 42 -6 0 -6 -12 -11 -27 -11 -16 -1
-55 -7 -88 -13 -73 -16 -44 -30 32 -16 127 23 273 42 323 42 62 0 206 -17 233
-28 9 -4 17 -3 17 3 0 6 -8 13 -17 15 -10 3 -5 5 12 6 36 2 49 10 58 35 6 14
13 17 33 12 17 -5 23 -3 19 4 -7 11 38 56 66 65 23 8 25 41 3 49 -12 5 -14 9
-5 20 8 10 7 22 -3 48 -15 34 -11 92 4 68 5 -8 9 -4 13 9 5 22 -2 24 -38 12z"/>
<path d="M2800 2124 c0 -8 5 -12 10 -9 6 4 8 11 5 16 -9 14 -15 11 -15 -7z"/>
<path d="M4178 2083 c6 -2 18 -2 25 0 6 3 1 5 -13 5 -14 0 -19 -2 -12 -5z"/>
<path d="M3378 1903 c6 -2 18 -2 25 0 6 3 1 5 -13 5 -14 0 -19 -2 -12 -5z"/>
<path d="M3949 1855 c30 -14 56 -23 58 -21 7 7 -74 46 -94 46 -10 0 6 -11 36
-25z"/>
<path d="M3755 2260 c-3 -5 -1 -10 4 -10 6 0 11 5 11 10 0 6 -2 10 -4 10 -3 0
-8 -4 -11 -10z"/>
<path d="M3780 2260 c0 -5 5 -10 11 -10 5 0 7 5 4 10 -3 6 -8 10 -11 10 -2 0
-4 -4 -4 -10z"/>
<path d="M3595 2231 c3 -6 28 -11 55 -11 26 0 50 -5 52 -11 2 -6 18 -9 35 -7
59 6 21 25 -66 32 -58 5 -81 4 -76 -3z"/>
<path d="M3780 2215 c0 -9 9 -15 21 -15 18 0 19 2 9 15 -7 8 -16 15 -21 15 -5
0 -9 -7 -9 -15z"/>
<path d="M1686 2194 c-9 -24 -7 -27 9 -10 17 17 19 26 6 26 -5 0 -12 -7 -15
-16z"/>
<path d="M1525 2059 c-11 -17 1 -21 15 -4 8 9 8 15 2 15 -6 0 -14 -5 -17 -11z"/>
<path d="M1440 1984 c0 -14 3 -14 15 -4 8 7 15 14 15 16 0 2 -7 4 -15 4 -8 0
-15 -7 -15 -16z"/>
<path d="M5708 1993 c7 -3 16 -2 19 1 4 3 -2 6 -13 5 -11 0 -14 -3 -6 -6z"/>
<path d="M1389 1973 c-13 -16 -12 -17 4 -4 9 7 17 15 17 17 0 8 -8 3 -21 -13z"/>
<path d="M5735 1970 c3 -5 11 -10 16 -10 6 0 7 5 4 10 -3 6 -11 10 -16 10 -6
0 -7 -4 -4 -10z"/>
<path d="M1407 1943 c-4 -3 -7 -13 -7 -21 0 -12 3 -12 15 -2 8 7 15 16 15 21
0 11 -14 12 -23 2z"/>
<path d="M1340 1920 l-25 -8 27 -1 c15 -1 30 4 33 9 7 11 0 11 -35 0z"/>
<path d="M5780 1891 c0 -12 28 -41 41 -41 5 0 9 5 9 10 0 6 -4 10 -9 10 -5 0
-17 7 -25 16 -9 8 -16 11 -16 5z"/>
<path d="M1290 1854 c0 -8 5 -12 10 -9 6 3 10 10 10 16 0 5 -4 9 -10 9 -5 0
-10 -7 -10 -16z"/>
<path d="M1191 1831 c-7 -5 -9 -11 -5 -14 5 -3 15 1 22 9 14 16 5 18 -17 5z"/>
<path d="M1260 1833 c-8 -4 -21 -13 -30 -21 -13 -13 -13 -14 0 -9 8 4 23 10
33 13 9 4 17 10 17 15 0 5 -1 9 -2 8 -2 0 -10 -3 -18 -6z"/>
<path d="M5850 1825 c7 -8 16 -12 21 -9 13 8 1 24 -18 24 -13 0 -13 -3 -3 -15z"/>
<path d="M5890 1830 c0 -5 5 -10 10 -10 6 0 10 5 10 10 0 6 -4 10 -10 10 -5 0
-10 -4 -10 -10z"/>
<path d="M1161 1794 c11 -14 10 -18 -6 -30 -14 -10 -15 -14 -4 -14 8 0 22 9
32 20 14 17 14 20 2 20 -8 0 -15 5 -15 10 0 6 -5 10 -11 10 -8 0 -7 -5 2 -16z"/>
<path d="M5885 1790 c3 -5 8 -10 11 -10 2 0 4 5 4 10 0 6 -5 10 -11 10 -5 0
-7 -4 -4 -10z"/>
<path d="M5970 1716 c0 -2 7 -9 15 -16 9 -7 15 -8 15 -2 0 5 -7 12 -15 16 -8
3 -15 4 -15 2z"/>
<path d="M1015 1630 c-3 -5 -1 -10 4 -10 6 0 11 5 11 10 0 6 -2 10 -4 10 -3 0
-8 -4 -11 -10z"/>
<path d="M20 240 c0 -5 5 -10 10 -10 6 0 10 5 10 10 0 6 -4 10 -10 10 -5 0
-10 -4 -10 -10z"/>
<path d="M5632 215 c0 -16 2 -22 5 -12 2 9 2 23 0 30 -3 6 -5 -1 -5 -18z"/>
<path d="M77 163 c3 -10 11 -25 18 -33 6 -8 17 -29 24 -45 16 -43 55 -85 77
-85 16 0 16 1 2 13 -19 15 -108 146 -108 158 0 5 -4 9 -10 9 -5 0 -7 -8 -3
-17z"/>
<path d="M5613 160 c-22 -55 -53 -141 -53 -149 0 -4 13 -8 29 -9 24 0 30 4 35
30 3 18 1 37 -5 44 -9 11 -8 21 1 43 6 16 10 38 7 48 -3 15 -5 14 -14 -7z"/>
</g>
</svg>
