<?xml version="1.0" standalone="no"?>
<!DOCTYPE svg PUBLIC "-//W3C//DTD SVG 20010904//EN"
 "http://www.w3.org/TR/2001/REC-SVG-20010904/DTD/svg10.dtd">
<svg version="1.0" xmlns="http://www.w3.org/2000/svg"
 width="400.000000pt" height="400.000000pt" viewBox="0 0 400.000000 400.000000"
 preserveAspectRatio="xMidYMid meet">

<g transform="translate(0.000000,400.000000) scale(0.100000,-0.100000)"
fill="#000000" stroke="none">
<path d="M790 3960 c-12 -23 -19 -44 -16 -47 2 -3 14 14 26 37 12 23 19 44 16
47 -2 3 -14 -14 -26 -37z"/>
<path d="M916 3948 c-19 -29 -45 -66 -59 -82 -14 -16 -33 -47 -43 -68 -9 -21
-22 -38 -29 -38 -7 0 -20 -18 -30 -39 -17 -38 -65 -94 -65 -76 0 5 -10 -1 -23
-13 -17 -16 -37 -22 -92 -24 l-69 -3 60 -40 c32 -22 60 -43 62 -46 1 -3 14 -4
27 -1 33 6 32 -12 -2 -56 -19 -26 -22 -34 -10 -29 24 9 22 -15 -4 -55 l-21
-33 6 40 c7 50 -5 32 -35 -55 -21 -62 -98 -185 -120 -192 -15 -5 -59 -130 -71
-198 -23 -140 -59 -220 -129 -285 -86 -80 -179 -99 -238 -49 l-31 26 0 -29 c0
-41 65 -131 123 -170 51 -34 121 -53 197 -53 l50 0 -1 -37 c0 -21 -4 -69 -8
-108 -5 -38 -5 -74 -1 -78 4 -4 28 39 55 97 26 58 51 107 54 108 3 2 14 20 25
40 19 37 46 58 46 35 0 -7 -7 -22 -15 -33 -8 -10 -15 -31 -15 -46 0 -15 -4
-37 -9 -51 -5 -13 -17 -70 -26 -128 -20 -124 -77 -295 -117 -350 l-28 -39 42
5 c160 22 284 71 341 133 20 23 37 40 37 37 0 -3 -16 -52 -35 -107 -37 -107
-39 -143 -5 -65 25 56 38 67 32 26 -6 -38 12 -37 28 1 7 17 15 28 18 26 7 -8
-28 -127 -44 -151 -8 -11 -14 -25 -14 -33 0 -7 -11 -38 -25 -68 -14 -30 -25
-58 -25 -62 0 -9 -40 -85 -49 -92 -4 -3 -12 -18 -19 -34 -7 -16 -15 -26 -19
-23 -3 4 0 13 7 22 7 9 10 19 6 22 -4 4 -11 1 -16 -7 -12 -19 -20 -9 -25 30
-3 18 -7 35 -11 39 -4 3 -4 -6 0 -21 5 -23 3 -28 -13 -28 -11 0 -21 -9 -25
-22 -6 -23 -7 -23 -21 -4 -14 19 -15 17 -15 -22 0 -47 24 -59 39 -20 6 16 10
18 16 8 10 -16 -32 -53 -51 -46 -7 3 -16 1 -20 -5 -3 -6 4 -13 16 -16 l22 -6
-23 -13 c-13 -7 -45 -13 -71 -14 -27 0 -48 -4 -48 -10 0 -5 28 -30 62 -55 34
-25 55 -45 47 -45 -22 0 -26 -95 -4 -104 8 -3 15 -1 15 4 0 6 13 23 30 38 16
16 30 33 30 39 0 5 28 15 62 22 34 7 75 19 90 27 31 16 39 1 9 -18 -10 -6 -17
-18 -14 -25 3 -7 1 -13 -5 -13 -5 0 -52 -42 -105 -92 l-95 -93 -11 -78 c-6
-43 -11 -88 -11 -100 0 -27 -29 -109 -30 -85 0 11 -5 15 -14 12 -15 -6 -32 28
-28 57 2 8 -13 30 -33 47 -19 18 -35 28 -35 22 0 -5 -13 -10 -30 -10 -32 0
-40 14 -15 28 9 4 18 21 21 37 3 16 14 38 26 49 16 15 17 20 6 27 -10 7 -10 9
2 9 12 0 13 2 1 9 -7 5 -11 13 -7 19 4 6 -2 8 -14 5 -25 -7 -70 4 -70 17 0 6
6 10 14 10 17 0 41 28 32 38 -4 4 -12 -1 -17 -11 -6 -9 -19 -17 -30 -17 -11 0
-19 -6 -18 -12 4 -36 -2 -43 -19 -21 -16 21 -19 22 -46 8 -15 -8 -39 -15 -52
-15 -17 0 -27 -8 -34 -26 -6 -14 -23 -29 -40 -35 l-30 -11 0 -464 0 -464 2000
0 2000 0 0 2000 0 2000 -1525 0 -1525 0 -34 -52z m-89 -333 c-29 -26 -59 -36
-35 -12 14 14 50 36 58 36 3 0 -8 -11 -23 -24z m1663 -235 c25 -36 26 -90 1
-232 -10 -60 -15 -108 -11 -108 8 0 42 118 57 200 l9 45 7 -42 c4 -24 11 -43
15 -43 4 0 8 -8 9 -17 2 -37 10 -83 15 -89 11 -11 -4 -42 -23 -47 -10 -3 -19
-11 -19 -19 0 -11 2 -11 9 1 7 11 10 11 17 0 24 -38 33 -61 27 -76 -5 -13 -1
-15 20 -11 35 7 34 2 -3 -17 -34 -17 -44 -19 -35 -5 3 6 3 15 -1 22 -4 6 -14
-7 -23 -32 -23 -61 -39 -62 -43 -3 l-4 48 -26 -56 c-17 -35 -39 -64 -60 -77
-18 -12 -60 -40 -93 -61 -89 -59 -86 -66 -42 94 20 75 47 229 95 549 10 70 32
73 33 4 l1 -53 14 50 c7 28 14 66 15 85 1 26 4 21 10 -23 5 -32 18 -71 29 -87z
m880 -318 c0 -14 -11 -21 -26 -15 -8 3 -11 9 -8 14 7 11 34 12 34 1z m-58 -42
c-2 -16 -9 -30 -14 -30 -6 0 -7 7 -4 16 3 9 6 22 6 30 0 8 4 14 8 14 5 0 7
-13 4 -30z m42 14 c9 -3 16 -12 16 -20 0 -17 -12 -18 -28 -2 -22 22 -16 33 12
22z m-324 -344 c0 -5 7 -10 15 -10 9 0 15 -9 15 -21 0 -14 5 -19 14 -16 9 4
18 -4 25 -21 6 -15 19 -38 28 -52 10 -13 12 -21 6 -16 -8 4 -13 1 -13 -8 0 -9
3 -16 8 -16 4 0 7 -29 7 -65 0 -36 -4 -65 -8 -65 -4 0 -4 -8 1 -17 10 -21 4
-123 -7 -123 -4 0 -7 -13 -6 -30 1 -16 -2 -27 -7 -24 -4 3 -8 0 -8 -5 0 -6 7
-11 15 -11 8 0 15 -7 15 -16 0 -8 -4 -12 -10 -9 -15 9 -12 -2 6 -20 13 -13 14
-18 3 -31 -10 -13 -10 -17 1 -24 11 -7 15 -41 17 -137 4 -211 11 -243 52 -228
9 4 11 0 7 -11 -3 -8 -6 -20 -6 -25 0 -6 -9 -7 -21 -4 -18 6 -20 5 -10 -14 7
-12 16 -21 21 -21 6 0 10 -7 10 -15 0 -8 -4 -15 -9 -15 -5 0 -13 -15 -16 -32
-4 -18 -14 -42 -21 -53 -8 -11 -14 -37 -14 -58 0 -23 -4 -36 -10 -32 -6 4 -10
-5 -10 -21 0 -21 -3 -24 -13 -15 -8 6 -17 8 -20 4 -4 -3 -17 2 -28 13 -16 14
-23 15 -26 7 -3 -7 -11 -13 -19 -13 -8 0 -14 -4 -14 -9 0 -10 -108 -67 -114
-60 -2 2 -6 22 -8 45 -5 37 -3 42 28 63 57 40 79 61 62 61 -9 0 -21 7 -28 15
-7 8 -17 12 -22 9 -6 -4 -5 -9 2 -14 7 -4 -32 -8 -88 -9 -97 -1 -101 -1 -105
21 -4 22 -4 22 -6 -2 -1 -15 -12 -32 -29 -43 -15 -9 -51 -35 -80 -56 -29 -22
-78 -47 -109 -57 -79 -25 -115 -52 -141 -108 -27 -56 -24 -83 8 -66 25 13 105
-13 114 -37 3 -8 2 -12 -3 -9 -4 3 -19 -6 -31 -19 -13 -14 -18 -25 -12 -25 6
0 16 -18 22 -39 14 -53 59 -87 92 -70 13 7 25 15 28 18 9 11 54 30 95 40 22 6
55 20 73 31 18 11 37 20 43 20 6 0 25 10 42 22 18 13 34 23 37 24 3 0 22 8 42
17 21 10 42 17 48 17 6 0 13 7 17 16 3 8 16 19 28 24 22 8 55 60 55 85 0 17
29 40 38 31 3 -4 -1 -21 -10 -37 -10 -16 -16 -35 -14 -42 1 -6 1 -9 -1 -4 -10
16 -23 6 -23 -18 0 -14 -5 -25 -11 -25 -6 0 -22 -9 -36 -20 -30 -23 -18 -27
15 -4 21 14 22 14 22 -5 0 -13 -7 -21 -16 -21 -11 0 -14 -5 -10 -16 6 -16 -78
-154 -94 -154 -6 0 -10 -7 -10 -15 0 -9 -7 -18 -15 -21 -8 -4 -12 -10 -9 -15
3 -5 2 -9 -3 -8 -11 3 -45 -11 -63 -26 -16 -14 -139 -47 -180 -50 -14 0 -31 3
-38 8 -7 6 -15 7 -18 4 -3 -3 12 -17 33 -31 42 -29 26 -35 -30 -11 -49 20 -67
18 -40 -4 12 -10 20 -21 17 -24 -5 -5 45 -26 77 -33 9 -2 37 -13 63 -24 26
-11 59 -20 73 -20 27 0 103 -38 103 -52 0 -4 11 -8 25 -8 14 0 25 -4 25 -9 0
-6 8 -10 18 -11 36 -3 98 -2 131 0 35 3 81 34 81 55 0 6 11 22 25 35 16 15 26
39 31 69 3 25 10 64 16 86 l10 40 24 -47 c24 -48 65 -85 82 -74 5 3 12 18 15
33 4 20 -2 34 -24 56 -16 16 -32 41 -35 55 -4 15 -13 37 -21 50 -13 21 -11 42
6 42 4 0 13 -22 20 -49 15 -61 53 -101 93 -101 17 0 28 -5 26 -11 -2 -6 -6 -9
-9 -7 -13 7 -40 -27 -51 -63 -6 -22 -17 -44 -24 -50 -7 -6 -11 -16 -8 -23 3
-8 -6 -17 -23 -21 -21 -6 -23 -9 -10 -12 24 -6 22 -33 -3 -33 -15 0 -20 -7
-20 -24 0 -14 -4 -27 -9 -30 -4 -3 -5 -23 -1 -44 6 -36 5 -39 -14 -35 -19 4
-19 3 -5 -9 15 -12 15 -16 -3 -38 -19 -24 -20 -24 -31 -5 -6 11 -12 29 -14 40
-1 16 1 14 9 -5 16 -34 15 -33 28 -25 8 5 5 15 -11 31 -26 27 -39 23 -39 -13
0 -14 -8 -31 -17 -38 -15 -11 -15 -13 5 -19 12 -4 22 -10 22 -14 0 -11 -134
-178 -212 -266 -16 -17 -28 -25 -28 -19 0 7 5 15 11 19 6 3 8 15 6 26 -4 15
-2 18 11 14 12 -4 11 -1 -4 12 -19 16 -20 24 -13 73 19 119 26 234 15 241 -8
5 -7 8 2 8 6 0 12 11 12 25 0 14 -4 25 -8 25 -17 0 -31 -46 -37 -120 -3 -41
-10 -90 -15 -110 -5 -19 -14 -61 -20 -92 -8 -39 -16 -58 -26 -58 -8 0 -14 -6
-14 -13 0 -7 -6 -22 -14 -33 -15 -19 -15 -19 -29 0 -14 19 -15 19 -21 -2 -4
-12 -12 -20 -17 -17 -5 4 -9 1 -9 -4 0 -6 5 -11 10 -11 6 0 10 -10 10 -22 0
-19 -2 -20 -10 -8 -5 8 -10 11 -10 5 0 -5 -4 -3 -9 4 -8 12 -11 9 -17 -14 -4
-16 -2 -36 4 -46 7 -10 8 -20 3 -23 -5 -3 -12 4 -17 17 -6 18 -8 15 -11 -20
-4 -44 -18 -57 -27 -25 -3 9 -14 67 -26 127 -35 187 -55 239 -173 445 -33 58
-81 141 -106 185 -25 45 -56 93 -68 109 -12 15 -25 37 -29 48 -6 20 -86 61
-169 88 -22 7 -55 19 -74 28 -26 12 -36 13 -39 4 -2 -7 -11 -12 -20 -11 -11 0
-12 2 -4 6 14 6 16 33 2 33 -27 0 -346 308 -379 366 -9 16 -24 37 -34 49 -10
11 -30 39 -44 63 -35 59 -29 120 16 166 18 18 31 39 29 47 -2 8 3 13 10 12 6
-2 21 6 32 17 28 28 68 42 101 35 32 -7 85 14 124 51 14 13 27 24 29 24 2 0 6
-60 9 -132 7 -134 22 -251 35 -275 4 -7 8 101 7 241 0 281 -1 277 68 311 l29
15 -6 -38 -6 -37 19 23 c22 25 56 31 47 7 -3 -9 0 -15 9 -15 17 0 22 -17 30
-95 11 -104 14 -113 36 -108 12 4 19 0 19 -10 0 -8 7 -20 15 -27 11 -9 16 -35
17 -89 1 -47 3 -60 5 -33 2 23 8 42 14 42 5 0 9 -4 9 -10 0 -5 7 -10 15 -10
20 0 19 9 -5 72 -11 29 -20 63 -20 76 0 13 -5 33 -11 45 -9 16 -9 22 0 25 6 2
11 8 11 13 0 6 -4 7 -10 4 -14 -9 -12 19 3 34 6 7 8 12 2 11 -22 -5 -36 1 -30
11 4 6 13 8 21 5 8 -3 14 -1 14 4 0 6 -6 10 -14 10 -16 0 -10 40 8 52 8 5 7 8
-1 8 -7 0 -13 7 -13 15 0 8 6 15 14 15 20 0 27 13 16 30 -7 12 -12 11 -30 -5
-16 -14 -23 -16 -32 -7 -9 9 -9 12 0 12 7 0 12 5 12 11 0 5 -5 7 -10 4 -17
-11 -64 48 -122 152 -27 49 -37 93 -20 93 4 0 26 24 47 52 34 44 83 98 90 98
1 0 2 -6 3 -12 1 -7 9 -53 17 -103 9 -49 20 -118 24 -151 8 -63 17 -88 29 -80
4 2 8 -16 9 -40 1 -25 8 -51 17 -60 9 -8 16 -27 16 -41 0 -21 29 -76 50 -93 3
-3 17 -21 30 -40 13 -19 41 -54 62 -78 29 -32 40 -38 44 -27 4 8 10 12 16 9 5
-3 4 -12 -3 -21 -9 -10 -9 -17 -2 -21 12 -8 16 -25 14 -62 -2 -35 -52 -89 -90
-96 -17 -4 -34 -10 -37 -15 -2 -5 -27 0 -53 11 -41 16 -54 17 -75 7 -33 -15
-29 -26 20 -55 28 -16 49 -21 74 -18 19 3 60 -1 90 -9 84 -23 92 -21 119 31
13 25 36 55 50 67 15 12 37 39 50 60 29 47 24 98 -14 137 -14 14 -25 31 -25
37 0 6 -8 14 -17 17 -15 6 -15 8 -3 17 11 8 12 12 2 16 -6 2 -10 9 -7 13 3 5
-3 18 -15 30 -11 11 -20 23 -20 26 0 4 -7 12 -16 18 -17 13 -20 42 -10 93 4
19 3 34 -5 38 -8 6 -7 10 2 16 12 8 11 11 -1 19 -13 8 -13 10 -1 10 11 0 9 4
-5 16 -18 14 -18 15 6 8 14 -4 31 -9 38 -11 6 -3 12 -1 12 3 0 5 -28 25 -62
44 -67 38 -86 67 -74 114 9 36 36 34 36 -3 0 -38 7 -41 88 -48 37 -2 69 -5 72
-5 3 0 33 0 68 1 l63 1 77 78 c127 130 126 127 128 209 2 47 8 80 19 97 18 26
35 34 35 16z m-146 -76 c13 -5 13 -10 5 -27 -23 -44 -40 -57 -60 -46 -30 16
-23 31 11 24 29 -6 30 -6 24 24 -7 33 -5 35 20 25z m-195 -90 c10 9 21 16 24
16 12 0 8 -28 -5 -32 -21 -7 2 -27 38 -34 l36 -7 -44 -28 c-42 -28 -102 -51
-165 -64 -30 -6 -33 -4 -33 17 0 37 45 123 76 146 l29 21 13 -26 c13 -23 15
-23 31 -9z m117 4 c4 -7 4 -10 -1 -6 -4 4 -17 3 -29 -3 -20 -10 -20 -10 -2 5
24 19 23 19 32 4z m-234 -620 c-9 -9 -12 -7 -12 12 0 19 3 21 12 12 9 -9 9
-15 0 -24z m38 -83 c30 -32 21 -42 -13 -15 -14 11 -32 20 -41 20 -18 0 -21
-31 -5 -47 6 -6 9 -19 7 -29 -3 -15 -9 -9 -26 23 -27 51 -27 60 -4 66 39 10
60 6 82 -18z m-12 -56 c2 -23 2 -23 -13 -5 -18 24 -20 39 -2 34 6 -3 13 -15
15 -29z m-2018 -414 c-7 -8 -17 -15 -22 -15 -6 0 -5 7 2 15 7 8 17 15 22 15 6
0 5 -7 -2 -15z m-40 -35 c0 -5 -5 -10 -11 -10 -5 0 -7 5 -4 10 3 6 8 10 11 10
2 0 4 -4 4 -10z m3086 -28 c-4 -3 -14 2 -24 12 -16 18 -16 18 6 6 13 -6 21
-14 18 -18z m-876 -1 c0 -5 -7 -12 -16 -15 -14 -5 -15 -4 -4 9 14 17 20 19 20
6z m827 -63 c-3 -8 -6 -5 -6 6 -1 11 2 17 5 13 3 -3 4 -12 1 -19z m-47 -288
c0 -5 -2 -10 -4 -10 -3 0 -8 5 -11 10 -3 6 -1 10 4 10 6 0 11 -4 11 -10z m-63
-36 c-3 -3 -12 -4 -19 -1 -8 3 -5 6 6 6 11 1 17 -2 13 -5z m-33 -149 c-9 -14
-19 -24 -21 -21 -6 6 20 46 30 46 4 0 0 -11 -9 -25z m-47 -11 c-3 -3 -12 -4
-19 -1 -8 3 -5 6 6 6 11 1 17 -2 13 -5z m13 -39 c-7 -9 -15 -13 -19 -10 -3 3
1 10 9 15 21 14 24 12 10 -5z m-27 -14 c2 -11 -3 -28 -12 -38 -10 -10 -26 -31
-35 -46 -18 -27 -46 -37 -46 -16 0 5 4 8 9 5 10 -7 71 77 71 98 0 22 7 20 13
-3z m-58 -31 c3 -5 -1 -10 -9 -10 -9 0 -16 5 -16 10 0 6 4 10 9 10 6 0 13 -4
16 -10z"/>
<path d="M2476 3352 c6 -4 14 -14 17 -22 4 -10 6 -8 6 8 1 15 -5 22 -16 22
-11 0 -14 -3 -7 -8z"/>
<path d="M3012 2353 c3 -17 23 -24 41 -16 9 5 -18 33 -33 33 -6 0 -10 -8 -8
-17z"/>
<path d="M2978 2332 c-6 -14 -95 -82 -107 -82 -7 0 -11 -6 -9 -12 3 -7 11 -13
19 -13 23 0 62 -32 54 -45 -4 -7 -1 -11 6 -9 8 1 21 1 29 0 13 -1 12 -3 -1
-11 -12 -7 -25 -5 -44 4 -17 9 -22 16 -13 19 7 2 9 8 5 13 -9 10 -28 -16 -21
-28 3 -4 -3 -8 -12 -8 -14 0 -15 -3 -6 -12 10 -10 15 -10 22 2 8 13 11 13 26
-1 15 -15 15 -19 -1 -42 -9 -14 -23 -28 -31 -31 -18 -7 -18 -26 0 -26 7 0 16
9 19 20 3 11 13 20 22 20 9 0 13 -4 10 -10 -3 -5 -1 -10 5 -10 7 0 9 8 5 19
-4 14 3 26 28 45 45 35 57 33 23 -3 l-29 -30 27 -7 c32 -8 56 10 56 42 0 14 8
25 20 29 11 4 17 11 14 17 -4 6 -9 5 -15 -3 -4 -7 -11 -10 -15 -6 -4 4 0 15
10 26 9 10 16 22 15 27 -5 31 3 64 16 64 8 0 15 7 15 15 0 11 -8 14 -32 11
-18 -3 -38 -5 -44 -5 -6 -1 -9 -15 -6 -33 l4 -33 -27 28 c-20 21 -24 31 -16
41 6 7 8 16 4 19 -9 9 -21 9 -25 -1z m-18 -76 c0 -8 3 -22 7 -32 6 -16 4 -16
-25 1 -28 17 -29 20 -14 31 22 17 32 17 32 0z m66 -50 c-7 -25 -23 -12 -33 25
l-11 42 24 -29 c13 -16 22 -33 20 -38z m36 22 c-7 -7 -12 -8 -12 -2 0 14 12
26 19 19 2 -3 -1 -11 -7 -17z m-32 -118 c0 -5 -4 -10 -10 -10 -5 0 -10 5 -10
10 0 6 5 10 10 10 6 0 10 -4 10 -10z"/>
<path d="M2840 2120 c0 -13 5 -20 13 -17 6 2 12 10 12 17 0 7 -6 15 -12 18 -8
2 -13 -5 -13 -18z"/>
<path d="M2903 2133 c-15 -5 -18 -33 -4 -33 8 0 25 30 19 35 -2 1 -9 0 -15 -2z"/>
<path d="M2665 2100 c-7 -12 2 -30 16 -30 12 0 12 27 0 35 -5 3 -12 1 -16 -5z"/>
<path d="M2761 2083 c-18 -20 -6 -29 14 -10 8 9 12 18 8 20 -5 3 -14 -2 -22
-10z"/>
<path d="M2800 2080 c0 -17 2 -19 14 -8 14 13 12 28 -5 28 -5 0 -9 -9 -9 -20z"/>
<path d="M2970 2080 c0 -13 28 -25 38 -16 3 4 0 11 -8 16 -20 13 -30 12 -30 0z"/>
<path d="M3040 2054 c0 -8 5 -12 10 -9 6 3 10 10 10 16 0 5 -4 9 -10 9 -5 0
-10 -7 -10 -16z"/>
<path d="M1970 1730 c0 -5 7 -10 16 -10 8 0 12 5 9 10 -3 6 -10 10 -16 10 -5
0 -9 -4 -9 -10z"/>
<path d="M2408 1623 c6 -2 18 -2 25 0 6 3 1 5 -13 5 -14 0 -19 -2 -12 -5z"/>
<path d="M2545 1470 c-3 -5 -1 -10 4 -10 6 0 11 5 11 10 0 6 -2 10 -4 10 -3 0
-8 -4 -11 -10z"/>
<path d="M2448 935 c13 -9 26 -14 29 -11 8 8 3 12 -27 21 l-25 7 23 -17z"/>
<path d="M3156 454 c-4 -9 -4 -19 -1 -22 2 -3 7 3 11 12 4 9 4 19 1 22 -2 3
-7 -3 -11 -12z"/>
<path d="M2690 410 c0 -19 3 -21 12 -12 9 9 9 15 0 24 -9 9 -12 7 -12 -12z"/>
<path d="M2711 393 c0 -5 4 -17 9 -28 8 -18 9 -17 9 8 1 15 -3 27 -9 27 -5 0
-10 -3 -9 -7z"/>
<path d="M2670 374 c0 -6 3 -14 8 -18 4 -4 14 -33 23 -64 l16 -57 0 53 c-1 29
-4 47 -9 40 -6 -10 -8 -9 -8 3 0 17 -29 60 -30 43z"/>
<path d="M2727 313 c-10 -10 -8 -25 2 -18 15 8 25 -15 12 -28 -15 -15 -14 -27
4 -27 8 0 15 -4 15 -10 0 -5 4 -10 8 -10 4 0 9 16 9 37 1 46 -28 79 -50 56z"/>
<path d="M3045 299 c-4 -6 -5 -12 -2 -15 2 -3 7 2 10 11 7 17 1 20 -8 4z"/>
<path d="M2796 237 c3 -10 9 -15 12 -12 3 3 0 11 -7 18 -10 9 -11 8 -5 -6z"/>
<path d="M2738 181 c-2 -16 -1 -37 2 -47 5 -14 8 -11 13 15 9 45 9 61 -2 61
-5 0 -11 -13 -13 -29z"/>
<path d="M661 1569 c-7 -16 -11 -33 -7 -36 3 -3 10 7 16 22 6 15 13 32 16 36
3 5 2 9 -3 9 -4 0 -14 -14 -22 -31z"/>
</g>
</svg>
