<?xml version="1.0" standalone="no"?>
<!DOCTYPE svg PUBLIC "-//W3C//DTD SVG 20010904//EN"
 "http://www.w3.org/TR/2001/REC-SVG-20010904/DTD/svg10.dtd">
<svg version="1.0" xmlns="http://www.w3.org/2000/svg"
 width="736.000000pt" height="736.000000pt" viewBox="0 0 736.000000 736.000000"
 preserveAspectRatio="xMidYMid meet">

<g transform="translate(0.000000,736.000000) scale(0.100000,-0.100000)"
fill="#000000" stroke="none">
<path d="M3261 7334 c-18 -20 -28 -24 -49 -19 -15 3 -28 11 -30 16 -2 5 -17 9
-33 9 -56 0 -118 -22 -158 -56 -31 -27 -52 -36 -93 -40 -99 -11 -169 -42 -241
-110 -29 -27 -71 -61 -94 -76 -51 -34 -145 -118 -241 -217 -50 -52 -92 -85
-135 -106 -56 -27 -77 -52 -42 -49 7 1 19 -10 26 -23 12 -23 11 -27 -21 -57
-49 -46 -72 -80 -138 -203 -44 -84 -59 -125 -69 -183 -6 -41 -26 -115 -43
-165 -18 -49 -45 -148 -60 -220 -15 -71 -35 -157 -45 -190 -10 -33 -19 -79
-20 -102 -4 -70 -63 -200 -125 -278 -73 -91 -103 -135 -97 -141 2 -3 28 9 56
26 29 17 57 28 62 25 19 -12 8 -35 -36 -72 -43 -36 -45 -38 -23 -44 24 -5 28
-27 12 -64 -7 -18 -6 -18 20 3 30 23 51 20 42 -5 -5 -12 -1 -14 14 -10 18 5
20 0 20 -41 0 -26 -7 -60 -15 -76 -18 -35 -18 -36 0 -36 18 0 20 -36 4 -77
-24 -61 -61 -223 -60 -268 0 -58 15 -145 22 -133 5 7 9 23 9 36 0 32 27 39 53
14 18 -19 19 -22 4 -27 -13 -6 -10 -12 18 -40 18 -19 43 -60 55 -92 22 -57 22
-59 6 -159 -21 -136 -21 -147 3 -133 25 16 51 5 52 -23 0 -13 10 4 23 40 26
70 51 103 71 96 9 -4 15 5 17 28 4 48 20 41 46 -22 19 -47 22 -68 18 -145 -5
-115 -28 -167 -106 -246 -56 -57 -74 -89 -50 -89 18 0 10 -27 -15 -55 -14 -15
-25 -34 -23 -44 1 -9 -4 -26 -10 -39 -7 -12 -10 -27 -6 -33 4 -6 2 -14 -3 -18
-5 -3 -13 -20 -16 -38 -5 -27 -4 -31 10 -26 13 5 15 2 11 -15 -4 -12 -2 -20 3
-16 5 3 9 -8 9 -24 0 -16 8 -40 18 -53 10 -13 35 -53 55 -90 35 -64 124 -171
113 -136 -7 21 -2 21 35 0 16 -10 29 -24 28 -33 -3 -28 1 -32 16 -20 12 10 15
10 15 -4 0 -9 7 -16 15 -16 20 0 19 -18 -1 -22 -14 -3 -14 -6 3 -27 17 -20 23
-22 39 -12 18 11 17 12 -3 6 -18 -5 -22 -3 -17 9 4 12 11 12 36 4 30 -11 46
-33 34 -46 -4 -3 -10 -1 -14 5 -4 7 -13 9 -20 4 -10 -6 -7 -12 12 -24 18 -12
26 -13 29 -4 3 6 6 -1 6 -17 1 -16 15 -50 31 -76 39 -61 73 -190 67 -253 -3
-38 -1 -47 9 -43 17 6 18 -21 4 -58 -13 -34 -32 -33 -28 2 2 21 -2 28 -17 30
-15 2 -21 -3 -22 -19 -2 -28 -11 -35 -25 -21 -8 8 -8 19 -1 39 14 37 15 80 3
103 -6 12 -5 30 6 58 l16 40 -42 58 c-40 56 -240 257 -248 250 -2 -2 2 -13 9
-24 10 -17 8 -26 -14 -64 -32 -55 -96 -119 -162 -163 -62 -41 -95 -52 -95 -32
0 8 -7 20 -15 27 -8 7 -15 23 -15 35 0 34 -23 47 -75 42 -38 -3 -49 0 -69 20
l-24 24 -7 -23 c-4 -13 -15 -30 -24 -38 -28 -25 -82 -51 -92 -44 -25 15 -43
-28 -55 -125 -1 -13 -7 -28 -13 -34 -33 -33 8 -47 78 -27 19 5 38 7 43 4 19
-12 -16 -34 -120 -74 -59 -23 -120 -48 -137 -55 -101 -44 -345 -136 -374 -142
-33 -6 -71 -30 -71 -44 0 -4 19 -3 42 2 37 9 44 7 69 -17 25 -24 48 -40 87
-60 24 -13 43 4 36 33 -9 39 -31 53 -81 53 -97 0 -50 25 287 151 135 50 254
92 265 93 17 1 20 -5 19 -36 -1 -29 3 -39 18 -44 14 -4 16 -9 9 -18 -7 -8 -5
-21 5 -41 10 -19 11 -31 5 -33 -6 -2 -11 -11 -11 -19 0 -10 6 -13 16 -9 12 4
15 2 11 -9 -4 -8 -2 -17 4 -20 18 -12 -2 -25 -39 -25 -36 -1 -82 -24 -70 -36
3 -3 41 -1 83 5 98 14 102 14 88 0 -9 -9 -9 -16 0 -29 8 -14 8 -22 -2 -33 -9
-12 -9 -16 1 -20 8 -3 -1 -17 -27 -40 -36 -32 -39 -38 -27 -56 6 -11 12 -29
12 -39 0 -11 12 -36 26 -57 14 -21 23 -43 20 -50 -4 -12 -45 -22 -261 -65 -60
-12 -148 -31 -195 -41 -47 -11 -112 -26 -145 -34 -112 -26 -410 -75 -453 -75
-13 0 -42 -9 -65 -19 -23 -10 -51 -21 -62 -24 -11 -4 -2 -5 20 -3 22 1 55 -1
73 -6 31 -9 32 -11 16 -22 -29 -22 -11 -62 39 -85 l42 -20 -33 -7 c-44 -9 -33
-17 12 -9 20 4 33 11 30 16 -3 5 4 9 15 9 24 0 26 -9 9 -45 -10 -22 -9 -28 3
-37 11 -7 9 -9 -9 -5 -19 5 -21 3 -11 -9 13 -16 80 -19 107 -5 9 5 45 17 79
27 35 9 63 21 63 25 0 5 -12 17 -27 26 -15 10 -35 25 -44 33 -8 8 -29 27 -45
42 -77 71 -78 101 -4 110 19 3 42 8 50 11 8 3 53 13 100 21 47 9 108 22 135
30 28 7 93 21 145 31 52 9 127 23 165 31 39 7 107 18 153 24 74 10 86 10 102
-5 16 -14 16 -19 5 -43 -8 -15 -15 -58 -17 -95 l-4 -69 81 7 c78 6 80 6 57
-12 -57 -45 -536 -195 -693 -217 -66 -9 -92 -18 -186 -62 -72 -34 -93 -48 -93
-64 0 -11 5 -20 10 -20 6 0 10 -8 10 -18 0 -23 30 -52 53 -52 15 0 21 11 19
31 -10 76 -10 76 28 98 21 12 49 21 63 21 14 0 56 9 93 21 56 17 82 20 146 14
80 -7 118 3 118 30 0 21 34 40 151 86 137 53 248 84 261 71 6 -6 1 -24 -16
-51 -14 -22 -26 -44 -26 -47 0 -4 -25 -47 -56 -96 -51 -80 -83 -158 -65 -158
3 0 26 37 51 82 25 44 64 111 87 147 24 36 43 69 43 72 0 8 130 223 142 234
11 10 6 -54 -6 -85 -4 -10 2 -19 16 -25 15 -7 28 -26 36 -55 8 -25 18 -54 23
-65 5 -11 18 -48 29 -83 23 -73 28 -84 39 -77 5 2 5 22 0 42 -4 21 -13 65 -19
98 -7 33 -18 74 -25 91 -17 39 -9 84 15 84 24 0 77 -62 100 -115 24 -55 99
-175 110 -175 12 0 40 41 40 59 0 8 -9 24 -19 35 -34 38 -131 234 -131 267 l0
32 68 -6 67 -6 -24 19 c-13 11 -31 20 -41 20 -24 0 -60 46 -60 75 0 12 -9 34
-20 48 l-21 26 33 58 c17 32 35 60 39 63 4 3 28 34 55 70 26 36 53 69 61 73 7
4 13 14 13 22 0 8 10 25 23 39 12 14 37 50 56 81 18 30 37 55 42 55 5 0 9 7 9
16 0 8 5 12 11 8 8 -4 9 0 4 15 -4 14 0 30 14 47 12 15 21 35 21 45 0 10 4 20
9 24 19 11 76 -77 166 -260 152 -310 162 -334 251 -610 37 -115 89 -268 115
-338 27 -70 65 -192 84 -270 45 -179 76 -300 116 -452 17 -66 35 -139 40 -162
4 -24 29 -112 54 -195 26 -84 48 -161 51 -170 5 -17 58 -18 940 -18 928 0 934
0 934 20 0 11 -7 64 -15 118 -7 53 -19 225 -25 380 -14 369 -35 588 -90 927
-16 99 -29 189 -29 200 -1 11 -4 72 -7 135 -4 63 -6 125 -6 138 0 12 -4 22 -8
22 -4 0 -7 13 -5 29 1 16 -4 75 -11 132 -22 172 -19 184 34 195 29 6 32 4 32
-19 0 -14 4 -28 10 -32 5 -3 7 -12 3 -20 -6 -18 8 -20 25 -3 10 10 17 10 32 0
28 -17 31 -15 18 13 -6 14 -9 28 -5 31 7 7 82 -28 114 -54 24 -19 35 -56 16
-57 -25 0 -25 -15 0 -15 16 0 32 -8 39 -20 15 -24 45 -26 68 -5 24 22 57 7 98
-44 18 -22 39 -41 46 -41 16 0 64 -53 76 -85 5 -13 10 -45 11 -72 1 -26 7 -82
15 -123 21 -119 33 -495 24 -765 l-5 -139 56 -39 c31 -21 96 -54 145 -72 l89
-34 9 -48 c5 -30 4 -81 -4 -140 -13 -98 -10 -123 14 -123 23 0 28 33 29 222 2
163 1 176 -22 226 -15 34 -30 52 -41 52 -10 0 -20 10 -23 22 -6 22 17 78 33
78 5 0 26 -20 47 -45 23 -28 45 -45 59 -45 12 0 26 -6 32 -12 11 -14 28 -103
24 -130 -2 -23 19 -23 66 1 20 10 51 22 67 25 64 14 73 31 80 146 4 60 15 132
27 167 17 54 23 63 43 63 13 0 28 8 34 17 7 14 12 15 24 5 12 -10 15 -7 21 19
3 17 6 73 6 123 0 125 8 166 31 166 10 0 25 -12 33 -27 19 -38 32 -158 17
-167 -6 -4 -11 -19 -11 -34 0 -21 2 -24 10 -12 8 13 10 12 10 -2 0 -10 -5 -18
-11 -18 -12 0 -4 -97 12 -153 5 -17 4 -37 -1 -47 -6 -11 -5 -23 3 -33 11 -15
197 -107 216 -107 4 0 27 -13 49 -30 25 -18 54 -30 72 -30 28 0 30 -2 30 -38
0 -22 -7 -61 -15 -88 -8 -27 -15 -64 -15 -83 0 -18 -13 -72 -29 -120 -34 -102
-53 -211 -51 -301 2 -109 1 -120 -14 -120 -15 0 -152 85 -234 145 -44 32 -52
45 -57 85 -16 121 -40 229 -56 245 -14 14 -1 -83 22 -170 23 -85 25 -141 4
-149 -31 -12 -10 -106 24 -106 13 0 41 -69 41 -100 0 -27 3 -30 34 -30 25 0
35 5 39 20 7 26 42 26 85 0 31 -19 50 -20 342 -20 l310 0 0 750 0 750 -35 0
c-42 0 -46 15 -6 23 22 5 30 13 35 38 3 17 6 228 6 468 l0 437 -53 17 c-30 9
-65 17 -78 17 -14 0 -29 4 -35 10 -5 5 -19 7 -32 4 -17 -5 -21 -13 -19 -37 3
-44 -14 -42 -45 6 -64 100 -147 167 -209 167 -9 0 -24 6 -31 13 -7 8 -19 12
-26 9 -7 -2 -20 -1 -30 3 -14 5 -14 7 -2 15 12 8 10 10 -10 11 -65 3 -98 7
-135 14 -72 14 -33 -2 155 -64 102 -34 192 -67 201 -74 18 -14 61 -92 54 -99
-3 -3 -51 6 -106 18 -56 13 -145 30 -198 39 -53 9 -110 21 -127 27 -27 10 -35
7 -73 -20 -33 -24 -48 -29 -64 -23 -30 11 -93 47 -142 80 -64 43 -235 128
-294 145 -55 16 -62 15 -74 -19 -3 -5 -24 9 -49 33 -24 24 -59 53 -78 65 l-35
21 32 -32 c49 -50 161 -228 150 -239 -3 -2 -12 7 -19 21 -41 78 -157 210 -218
247 -23 14 8 31 32 18 14 -7 16 -6 12 6 -4 8 1 17 10 21 9 3 16 10 16 16 0 12
-27 3 -105 -32 -98 -45 -287 -127 -335 -146 -65 -26 -184 -109 -262 -183 -37
-35 -85 -74 -105 -87 -21 -12 -48 -36 -61 -53 -42 -57 -58 -28 -21 38 15 26
35 42 75 60 62 27 72 46 52 104 l-14 38 -22 -40 c-13 -23 -27 -41 -32 -41 -14
0 -17 32 -7 70 19 75 20 90 5 90 -11 0 -12 12 -4 71 10 69 9 71 -16 92 -29 25
-46 77 -26 77 8 0 6 5 -4 11 -10 5 -18 16 -18 23 0 6 -20 31 -45 55 -43 41
-55 61 -36 61 5 0 11 9 14 20 3 12 14 20 27 20 18 0 20 3 11 14 -10 12 -6 17
26 25 48 14 80 14 88 1 3 -5 19 -10 36 -10 21 0 29 5 29 18 1 9 7 34 15 56 14
40 10 56 -23 97 -7 9 -14 29 -15 43 -1 15 -7 30 -12 34 -6 4 -10 19 -10 34 -1
25 0 26 17 11 10 -8 15 -20 12 -24 -3 -5 -1 -9 5 -9 5 0 13 5 16 11 4 6 14 8
22 4 22 -8 63 21 63 45 0 11 -4 20 -10 20 -5 0 -7 7 -3 16 3 8 12 13 19 10 9
-4 5 12 -11 45 l-26 50 56 -32 c30 -17 62 -28 70 -25 8 3 77 -20 152 -50 159
-65 304 -117 309 -111 2 2 -49 23 -113 47 -239 87 -469 200 -408 200 14 0 7
10 -26 40 -24 22 -47 40 -51 40 -16 0 -18 84 -4 166 9 49 16 126 16 170 0 60
4 85 15 94 12 10 16 7 25 -16 25 -70 29 -70 29 -4 2 98 25 187 70 270 54 99
62 108 91 106 25 -1 25 -2 24 -84 -1 -67 1 -82 13 -82 11 0 13 -3 5 -12 -6 -7
-13 -31 -16 -53 -5 -29 -4 -34 3 -20 5 11 10 30 10 43 1 12 6 22 12 22 6 0 9
6 6 14 -3 8 3 22 14 31 13 12 17 25 13 42 -4 13 -2 29 4 36 19 23 22 72 8 137
-9 39 -10 69 -5 75 5 5 9 35 9 66 0 41 4 58 15 63 35 13 2 137 -63 239 -42 63
-50 91 -33 102 18 11 86 -115 132 -247 7 -21 17 -38 21 -38 10 0 10 8 -2 49
-5 20 -6 39 -1 45 12 15 -3 111 -24 161 -10 22 -26 72 -37 110 -10 39 -28 93
-39 122 -11 28 -21 77 -22 107 -1 31 -5 56 -9 56 -3 0 -4 10 0 22 4 16 1 20
-9 16 -10 -4 -14 3 -15 21 -2 27 -63 166 -64 143 0 -7 -4 -11 -10 -7 -5 3 -7
12 -3 20 3 8 1 15 -5 15 -11 0 -22 23 -28 55 -2 11 -13 65 -24 120 -29 144
-30 139 30 132 59 -7 65 5 13 30 -21 10 -62 41 -90 70 -48 48 -58 66 -54 99 1
7 -10 35 -24 63 -15 28 -32 76 -40 105 -34 129 -128 261 -250 351 -22 16 -52
44 -68 62 -35 40 -150 151 -196 190 -87 73 -111 97 -111 112 0 23 49 67 84 75
15 4 27 9 25 11 -2 2 -51 8 -109 15 -124 13 -162 23 -213 58 -33 22 -55 27
-160 35 -67 5 -171 10 -232 10 -101 2 -118 -1 -207 -31 -80 -27 -114 -34 -192
-35 -52 -1 -97 1 -101 5 -4 3 1 20 9 37 9 16 16 32 16 36 0 3 -24 5 -53 5 -45
0 -57 -4 -76 -26z m2023 -1795 c25 -46 25 -49 7 -39 -24 13 -41 41 -41 69 0
31 5 26 34 -30z m16 -234 c6 -3 10 -14 10 -23 -1 -14 -4 -13 -20 7 -11 13 -20
37 -19 55 l1 31 9 -32 c5 -18 14 -35 19 -38z m-1773 -150 c18 -9 35 -20 38
-25 3 -5 21 -17 40 -26 34 -16 50 -14 132 17 19 7 24 5 28 -14 3 -12 9 -42 15
-67 22 -98 23 -279 1 -501 -12 -118 -21 -219 -21 -225 0 -5 -9 9 -20 31 l-20
40 4 -36 c2 -20 11 -47 21 -62 9 -15 14 -34 10 -46 -5 -18 -9 -16 -45 19 -22
22 -40 45 -40 53 0 31 -34 138 -69 217 -29 64 -40 103 -44 160 -6 80 -32 157
-87 255 -90 161 -104 201 -78 229 15 15 88 5 135 -19z m317 -41 c20 -3 38 -9
40 -13 12 -19 57 -328 53 -364 -23 -217 -29 -264 -34 -277 -4 -8 -7 -18 -7
-23 -2 -13 -55 -36 -58 -25 -3 8 -11 7 -26 -1 -21 -11 -22 -10 -22 31 0 24 8
84 17 133 30 163 21 382 -23 534 -6 20 -4 23 9 18 8 -3 32 -9 51 -13z m-406
-202 c49 -78 93 -178 91 -210 0 -14 -2 -14 -6 -2 -3 8 -36 77 -74 153 -38 75
-67 137 -65 137 2 0 26 -35 54 -78z m-232 -105 c25 -175 33 -190 158 -306 47
-43 53 -52 32 -47 -15 4 -26 2 -26 -4 0 -5 -16 -10 -36 -10 -27 0 -37 -5 -41
-19 -5 -19 -5 -19 -24 0 -25 25 -84 197 -97 284 -16 102 -24 243 -16 257 13
20 34 -46 50 -155z m1724 74 c17 -33 11 -47 -10 -21 -11 14 -20 28 -20 33 0
14 20 7 30 -12z m-1466 -203 c36 -64 66 -120 66 -123 0 -3 16 -31 36 -62 32
-51 74 -142 74 -163 0 -16 -112 103 -146 156 -19 29 -34 56 -34 59 0 3 -11 18
-25 33 -31 33 -64 128 -72 207 l-6 60 20 -25 c11 -14 50 -78 87 -142z m1004
11 c6 -41 5 -56 -4 -56 -13 0 -30 71 -39 157 l-5 55 20 -50 c11 -27 24 -75 28
-106z m757 141 c6 -10 -23 -80 -34 -80 -3 0 -17 -10 -31 -21 l-25 -21 50 6
c48 6 49 6 27 -10 -12 -8 -20 -19 -17 -24 9 -14 -30 -30 -72 -30 -39 1 -73 18
-73 39 0 6 -7 14 -15 17 -8 4 -15 14 -15 24 0 11 -4 22 -10 25 -5 3 -10 14
-10 23 1 14 2 14 12 -3 14 -27 38 -45 59 -45 15 0 16 5 8 32 -5 17 -8 32 -6
33 10 8 107 39 139 44 4 0 10 -3 13 -9z m-2050 -275 c15 -49 30 -96 33 -104 4
-10 -1 -12 -16 -7 -15 5 -21 2 -24 -11 -10 -43 -39 99 -43 212 l-5 120 14 -60
c8 -33 26 -100 41 -150z m146 64 c11 -22 11 -23 -4 -11 -16 14 -48 95 -46 121
0 9 9 -7 19 -35 10 -28 24 -62 31 -75z m1595 60 c3 -6 -5 -3 -20 6 -14 10 -26
19 -26 22 0 7 39 -17 46 -28z m344 27 c0 -3 -4 -8 -10 -11 -5 -3 -10 -1 -10 4
0 6 5 11 10 11 6 0 10 -2 10 -4z m100 -66 c30 0 32 -16 7 -62 -33 -60 -71 -78
-135 -65 -43 9 -54 8 -77 -7 -21 -14 -24 -20 -14 -27 19 -11 5 -22 -20 -14
-12 3 -21 14 -21 24 0 19 83 105 92 95 4 -3 16 -3 27 1 16 5 20 12 15 31 l-6
24 30 -17 c41 -23 51 -10 17 21 -23 21 -25 28 -15 41 8 9 21 13 36 9 16 -4 24
-2 25 7 1 8 6 -3 11 -23 7 -27 16 -38 28 -38z m-222 -15 c9 -8 -29 -36 -44
-33 -9 2 -24 14 -33 27 l-16 24 45 -7 c24 -4 46 -9 48 -11z m-1031 -27 c-3 -7
-5 -2 -5 12 0 14 2 19 5 13 2 -7 2 -19 0 -25z m-756 -25 c13 -16 12 -17 -3 -4
-17 13 -22 21 -14 21 2 0 10 -8 17 -17z m30 -40 c13 -16 12 -17 -3 -4 -17 13
-22 21 -14 21 2 0 10 -8 17 -17z m747 -45 c-3 -45 -6 -53 -24 -56 -19 -3 -21
1 -17 40 8 81 46 95 41 16z m159 20 c-3 -8 -6 -5 -6 6 -1 11 2 17 5 13 3 -3 4
-12 1 -19z m-1072 -88 c3 -5 -1 -10 -9 -10 -8 0 -18 5 -21 10 -3 6 1 10 9 10
8 0 18 -4 21 -10z m1278 -171 c12 -16 12 -25 3 -44 -16 -35 -31 -25 -34 23 -3
46 9 54 31 21z m-843 -30 c0 -16 -5 -29 -11 -29 -6 0 -9 6 -6 13 2 6 -2 19 -9
27 -11 14 -10 16 6 17 16 1 20 -5 20 -28z m511 4 c5 -38 0 -73 -12 -73 -5 0
-9 23 -9 50 0 53 15 69 21 23z m-1121 7 c0 -5 -4 -10 -10 -10 -5 0 -10 5 -10
10 0 6 5 10 10 10 6 0 10 -4 10 -10z m-74 -40 c19 -48 55 -70 114 -70 43 0 43
0 34 -24 -9 -24 -134 -22 -202 4 -111 42 -121 68 -39 105 28 13 58 24 65 24 7
1 19 -17 28 -39z m1434 -10 c0 -37 -19 -58 -41 -44 -15 9 -10 41 7 48 9 3 14
12 11 20 -6 16 2 28 14 20 5 -3 9 -22 9 -44z m-190 22 c0 -12 14 -23 43 -33
23 -9 42 -22 42 -29 0 -9 -15 -14 -42 -16 -24 -1 -43 2 -43 8 0 6 -7 8 -15 4
-17 -6 -18 5 -9 53 7 33 24 43 24 13z m-970 -2 c13 -8 12 -10 -3 -10 -14 0
-16 -4 -8 -19 8 -14 6 -23 -9 -36 -24 -22 -26 -21 -33 33 -5 38 -3 42 16 42
12 0 29 -5 37 -10z m-140 -35 c0 -20 -5 -25 -24 -25 -14 0 -32 8 -42 18 -17
16 -16 17 22 23 21 3 40 7 42 8 1 0 2 -10 2 -24z m595 15 c-3 -5 -2 -10 4 -10
5 0 13 5 16 11 5 7 14 4 26 -7 18 -16 18 -19 4 -27 -21 -11 -34 1 -15 14 12 7
9 9 -10 8 -41 -3 -60 0 -60 11 0 6 9 10 21 10 11 0 17 -4 14 -10z m-27 -36 c7
-8 31 -18 52 -24 44 -12 51 -25 19 -35 -16 -5 -18 -9 -9 -15 10 -6 3 -21 -25
-60 -40 -55 -27 -57 28 -5 16 15 31 24 35 21 3 -4 1 -49 -6 -102 -12 -93 -31
-146 -81 -219 -12 -16 -21 -34 -21 -39 0 -18 50 50 82 109 17 33 34 61 38 63
4 1 5 15 3 30 l-3 27 10 -24 c7 -17 7 -28 0 -35 -11 -11 -14 -69 -3 -80 10
-10 11 -46 1 -52 -5 -3 -4 -12 2 -19 9 -11 7 -17 -8 -26 -16 -10 -18 -18 -10
-52 11 -52 3 -58 -27 -22 -34 42 -31 21 7 -39 24 -39 31 -61 30 -93 -1 -24 2
-43 7 -43 14 0 51 -78 51 -106 0 -36 -89 -119 -142 -132 -38 -10 -44 -8 -71
14 -15 13 -33 24 -38 24 -5 0 -32 15 -59 33 -54 35 -63 63 -35 101 8 11 15 28
15 38 0 11 13 47 29 81 15 34 31 87 34 117 9 85 -7 228 -31 280 -27 57 -26
110 4 110 16 0 20 7 21 36 1 19 3 37 6 40 2 3 29 8 58 12 l54 7 -54 5 c-51 5
-55 7 -58 34 -7 54 54 80 95 40z m-999 -26 c13 -42 26 -205 15 -178 -4 8 -16
23 -28 32 -18 15 -21 28 -22 102 -2 96 14 116 35 44z m731 -8 c0 -18 -71 -88
-123 -122 -29 -18 -58 -38 -65 -45 -20 -19 -22 -17 -22 27 0 35 4 41 33 54 17
7 61 32 97 54 69 44 80 48 80 32z m1119 -125 c-17 -128 -29 -169 -29 -101 0
20 -5 69 -11 108 l-11 71 29 26 c15 15 31 26 34 25 3 -2 -2 -60 -12 -129z
m-1919 83 c0 -36 -4 -35 -14 5 -4 16 -2 27 4 27 5 0 10 -14 10 -32z m1450 -53
c0 -38 -5 -44 -31 -38 -14 4 -19 14 -19 42 0 47 19 69 37 44 7 -9 13 -31 13
-48z m56 42 c8 3 14 -1 14 -11 0 -12 6 -15 25 -10 14 3 31 2 38 -3 15 -12 105
-43 124 -43 8 0 11 5 8 10 -3 6 -3 10 2 10 4 0 16 -18 27 -39 10 -22 36 -59
56 -83 40 -45 52 -83 52 -170 -1 -27 1 -48 4 -48 14 0 54 34 54 47 0 8 5 11
10 8 7 -4 7 -12 0 -24 -5 -10 -7 -20 -5 -23 3 -3 -4 -13 -15 -23 -11 -10 -20
-28 -20 -40 0 -13 -7 -26 -16 -29 -8 -3 -13 -10 -9 -15 3 -5 -4 -12 -15 -16
-11 -3 -20 -13 -20 -21 0 -15 -26 -20 -32 -6 -6 14 -78 65 -78 54 0 -5 21 -28
47 -49 l46 -39 -18 -47 c-14 -38 -21 -45 -31 -36 -11 9 -15 7 -21 -7 -12 -33
-29 -42 -79 -44 -69 -2 -68 -3 -82 30 -8 17 -18 28 -23 24 -5 -3 -9 4 -9 16 0
12 -4 19 -9 16 -4 -3 -6 5 -4 18 4 18 -3 31 -22 48 -15 13 -30 22 -33 20 -11
-5 -20 38 -21 95 -2 81 3 86 52 53 44 -29 97 -47 97 -32 0 5 -9 21 -20 35 -11
14 -20 31 -20 39 0 16 37 41 49 33 5 -2 16 7 25 20 16 24 16 27 -6 58 -12 17
-23 38 -23 47 0 9 -11 16 -27 18 -16 2 -28 8 -28 13 0 5 -7 9 -15 9 -10 0 -15
-10 -15 -30 0 -16 -5 -30 -11 -30 -15 0 -4 -87 12 -106 9 -10 9 -14 0 -14 -6
0 -11 5 -11 10 0 7 -7 7 -21 -1 -21 -11 -21 -11 -14 88 4 54 7 103 6 108 -4
34 -4 54 -2 90 1 22 5 35 7 28 3 -7 12 -9 20 -6z m-1346 -72 c14 -51 8 -108
-14 -131 -14 -13 -15 -5 -15 86 1 55 4 98 9 95 4 -2 13 -25 20 -50z m88 37
c15 -11 48 -29 74 -42 47 -23 91 -24 181 -4 l27 6 0 -60 c0 -52 -3 -62 -20
-67 -11 -3 -20 -13 -20 -22 0 -9 6 -13 15 -9 13 4 15 -7 14 -67 0 -40 -8 -94
-17 -121 -18 -52 -42 -73 -42 -37 0 12 -4 21 -10 21 -5 0 -10 7 -10 16 0 8 -4
13 -10 9 -5 -3 -17 9 -26 26 -12 25 -14 37 -5 56 6 14 9 29 6 34 -9 14 -45 11
-45 -5 0 -9 -8 -12 -27 -8 -24 4 -25 6 -8 12 16 6 13 8 -13 13 -23 5 -32 12
-32 27 0 11 -16 68 -35 127 -19 59 -35 108 -35 110 0 7 14 2 38 -15z m1576
-54 c3 -34 5 -63 3 -65 -5 -4 -57 92 -57 105 0 9 13 15 41 21 3 0 9 -27 13
-61z m-384 -21 c0 -7 -7 -93 -15 -192 -8 -99 -15 -184 -15 -189 0 -5 -9 3 -20
17 -31 39 -28 260 4 362 5 15 46 16 46 2z m-608 -134 c5 -95 4 -103 -15 -109
-14 -4 -18 -12 -14 -32 7 -38 -47 -106 -78 -98 -15 4 -29 -2 -45 -19 -13 -14
-33 -25 -45 -25 -44 0 -66 -54 -39 -95 8 -11 14 -28 14 -38 0 -16 3 -17 15 -7
8 7 15 18 15 25 0 6 10 23 21 36 l22 24 -6 -29 c-12 -67 53 -168 116 -180 26
-5 29 -9 17 -17 -11 -7 -8 -8 11 -4 30 7 125 -34 99 -43 -8 -3 -19 -11 -23
-19 -6 -9 -16 -11 -30 -7 -12 4 -39 6 -60 5 -22 -1 -45 3 -53 10 -8 6 -27 9
-44 7 -16 -3 -30 -1 -30 3 0 11 -33 -1 -46 -17 -20 -25 -60 -33 -100 -22 -28
7 -39 7 -42 -1 -2 -6 -7 -11 -12 -11 -7 0 51 144 63 157 3 3 3 11 0 19 -7 18
-33 18 -33 0 0 -12 -49 -33 -54 -24 -6 9 -36 86 -41 104 -5 20 20 55 34 45 10
-7 42 45 47 76 3 17 14 55 25 84 52 136 69 186 69 209 1 57 10 70 51 70 28 0
39 -4 39 -15 0 -21 3 -20 72 31 74 54 73 56 80 -93z m-627 75 c24 -79 33 -129
21 -119 -7 6 -15 8 -18 5 -3 -3 -9 -1 -13 5 -3 6 -1 11 4 11 21 0 11 21 -14
30 -24 9 -36 40 -15 40 6 0 10 11 10 25 0 31 15 33 25 3z m1721 -126 c-9 -9
-18 -13 -21 -10 -3 3 1 12 9 21 8 8 13 17 10 20 -3 2 -1 18 3 33 8 28 8 28 11
-10 2 -25 -2 -44 -12 -54z m-729 26 c-3 -8 -6 -5 -6 6 -1 11 2 17 5 13 3 -3 4
-12 1 -19z m-376 -230 c30 -33 42 -67 28 -84 -6 -8 -15 -11 -21 -8 -5 3 -15 1
-23 -6 -19 -16 -68 34 -60 61 6 17 42 59 51 59 2 0 13 -10 25 -22z m570 -65
c-9 -16 -10 -14 -11 12 0 21 3 26 11 18 8 -8 8 -16 0 -30z m90 -40 c45 -88 66
-113 95 -113 13 0 24 -4 24 -10 0 -5 -4 -10 -10 -10 -5 0 -10 -7 -10 -15 0 -8
-4 -15 -9 -15 -5 0 -11 -13 -14 -30 -4 -16 -13 -30 -21 -30 -7 0 -17 -8 -20
-17 -6 -15 -8 -15 -22 -1 -13 12 -24 14 -57 6 -23 -5 -64 -6 -91 -2 l-50 6 50
44 c27 24 52 44 56 44 4 0 16 26 28 57 20 54 21 92 3 139 -3 8 -1 14 4 14 6 0
25 -30 44 -67z m-2097 -239 c7 -19 -3 -64 -15 -64 -5 0 -9 18 -9 40 0 40 13
53 24 24z m2896 -38 c0 -4 -7 -5 -16 -2 -12 5 -15 2 -11 -13 3 -14 0 -17 -14
-14 -19 5 -17 15 9 46 12 13 17 15 24 5 4 -7 8 -17 8 -22z m-48 -53 c-6 -2
-10 -9 -7 -14 4 -5 -1 -6 -9 -3 -20 8 -11 24 12 23 11 0 12 -2 4 -6z m-682
-243 c8 -5 10 -10 5 -10 -6 0 -15 -10 -20 -22 -6 -13 -19 -25 -30 -27 -11 -2
-23 -7 -26 -12 -3 -5 -14 0 -24 11 -10 11 -16 21 -14 23 20 12 85 47 89 47 3
0 12 -5 20 -10z m-778 -112 c27 -26 53 -48 57 -48 5 0 15 -7 22 -16 12 -15 11
-16 -11 -9 -14 4 -28 12 -31 17 -3 5 -13 6 -22 2 -11 -4 -19 0 -23 10 -3 9
-12 16 -20 16 -8 0 -14 5 -14 10 0 6 -9 10 -20 10 -12 0 -20 -7 -20 -16 0 -30
-42 34 -47 71 l-4 34 42 -17 c23 -9 64 -38 91 -64z m632 15 c-13 -14 -27 -23
-31 -20 -8 9 27 47 43 47 8 0 3 -11 -12 -27z m953 -25 c-3 -7 -5 -2 -5 12 0
14 2 19 5 13 2 -7 2 -19 0 -25z m-1752 12 c3 -5 1 -10 -4 -10 -6 0 -11 5 -11
10 0 6 2 10 4 10 3 0 8 -4 11 -10z m2390 -27 c3 -16 10 -44 15 -63 11 -40 3
-83 -14 -77 -11 3 -58 87 -71 126 -5 16 -1 23 17 30 38 16 47 13 53 -16z
m-1835 -2 c0 -9 -24 -21 -42 -21 -6 0 -6 6 2 15 14 16 40 20 40 6z m135 -21
c-3 -5 -18 -10 -33 -9 -24 0 -25 1 -7 9 28 12 47 12 40 0z m-1907 -9 c11 -7
11 -9 -2 -14 -9 -4 -16 -13 -16 -22 0 -8 -4 -15 -9 -15 -5 0 -8 -8 -7 -17 0
-10 -7 -19 -18 -21 -14 -3 -17 0 -13 12 5 13 3 14 -16 3 -12 -6 -29 -17 -37
-23 -21 -16 -66 -26 -52 -12 16 16 146 117 152 117 3 0 11 -3 18 -8z m1684
-13 c-6 -6 -15 -8 -19 -4 -4 4 -1 11 7 16 19 12 27 3 12 -12z m1258 -110 c0
-18 -2 -20 -9 -8 -6 8 -7 18 -5 22 9 14 14 9 14 -14z m-2719 -122 c-19 -36
-124 -99 -213 -129 -60 -20 -78 -22 -78 -12 0 17 14 26 54 35 17 4 30 12 29
18 -4 16 10 15 26 0 12 -11 13 -10 7 6 -5 15 -2 17 19 12 14 -4 25 -2 25 3 0
5 10 13 23 16 49 15 78 31 83 47 3 10 10 18 16 18 6 0 7 8 3 18 -5 13 -4 14 6
5 10 -10 10 -18 0 -37z m2891 -38 c14 -13 39 -30 56 -40 30 -16 89 -95 78
-105 -5 -5 -162 63 -183 80 -27 20 -11 77 23 87 1 0 12 -10 26 -22z m-3210
-423 c20 -5 40 -13 44 -17 4 -5 16 -8 26 -8 15 0 18 -5 13 -22 -18 -58 -31
-72 -78 -87 -54 -17 -68 -9 -65 39 0 14 -4 37 -10 52 -9 21 -7 35 6 67 17 39
17 40 22 13 4 -20 14 -29 42 -37z m5198 -95 c16 0 18 -6 13 -37 -3 -21 -9 -54
-14 -73 -7 -30 -8 -26 -6 25 1 33 -2 62 -7 65 -15 8 -26 -46 -36 -190 l-10
-135 37 -31 c51 -43 36 -54 -20 -15 l-45 31 -1 92 c-1 86 19 244 35 269 3 6
13 8 21 5 8 -3 23 -6 33 -6z m-5330 -60 c0 -5 -7 -10 -15 -10 -8 0 -15 5 -15
10 0 6 7 10 15 10 8 0 15 -4 15 -10z m5486 -214 c24 -38 10 -130 -27 -168 -15
-17 -33 -27 -38 -23 -16 9 -13 70 4 112 8 19 15 48 15 63 0 46 21 53 46 16z
m-681 -91 c23 -13 68 -34 98 -45 31 -12 66 -30 79 -40 l23 -19 -32 -1 c-17 0
-60 13 -95 30 -34 16 -72 30 -84 30 -25 0 -69 44 -59 59 9 16 24 14 70 -14z
m-2289 -22 c-11 -11 -19 6 -11 24 8 17 8 17 12 0 3 -10 2 -21 -1 -24z m-756
-5 c26 -28 50 -75 50 -99 0 -10 8 -25 17 -34 12 -13 14 -21 6 -34 -15 -24 -50
-26 -65 -2 -7 12 -21 21 -31 21 -21 0 -97 75 -97 96 0 21 57 74 80 74 11 0 29
-10 40 -22z m2868 -2 c25 -23 27 -30 26 -98 -1 -40 -3 -75 -3 -78 -2 -12 -55
-9 -63 2 -12 19 -10 198 2 198 6 0 23 -11 38 -24z m351 -146 c20 -17 31 -36
31 -53 0 -35 25 -36 60 -2 24 23 28 23 53 10 24 -12 28 -12 37 5 5 10 10 26
10 35 0 26 33 13 41 -15 9 -33 10 -172 2 -293 -6 -102 -14 -118 -51 -101 -9 4
-21 8 -27 9 -96 12 -131 20 -191 41 l-70 25 2 62 c1 34 -4 105 -12 157 -7 52
-13 118 -14 147 l0 52 49 -26 c28 -14 64 -38 80 -53z m-2829 42 c14 -6 38 -22
55 -35 26 -21 28 -27 16 -41 -8 -9 -16 -14 -18 -12 -3 2 -24 -3 -46 -13 -23
-10 -65 -19 -93 -20 -44 -1 -54 2 -67 23 -15 22 -14 24 8 36 13 7 26 23 29 36
14 53 38 58 116 26z m2890 8 c0 -5 -2 -10 -4 -10 -3 0 -8 5 -11 10 -3 6 -1 10
4 10 6 0 11 -4 11 -10z m540 -80 c0 -6 -9 -5 -20 2 -11 7 -20 16 -20 21 0 4 9
3 20 -3 11 -6 20 -15 20 -20z m-33 -62 c-66 -160 -130 -305 -138 -313 -5 -5
-9 0 -9 14 0 21 26 86 91 229 16 35 29 68 29 73 0 5 7 9 16 9 9 0 14 -6 11
-12z m-3490 -314 c-3 -3 -12 -4 -19 -1 -8 3 -5 6 6 6 11 1 17 -2 13 -5z m-40
-10 c-3 -3 -12 -4 -19 -1 -8 3 -5 6 6 6 11 1 17 -2 13 -5z m-67 -8 c0 -11 -19
-15 -25 -6 -3 5 1 10 9 10 9 0 16 -2 16 -4z m3426 -72 c-8 -30 -36 -77 -43
-70 -6 5 35 96 43 96 4 0 3 -12 0 -26z m-1401 6 c3 -5 2 -10 -4 -10 -5 0 -13
5 -16 10 -3 6 -2 10 4 10 5 0 13 -4 16 -10z"/>
<path d="M3710 4291 c0 -5 9 -19 20 -32 16 -20 19 -21 20 -6 0 9 -4 17 -10 17
-5 0 -10 7 -10 15 0 8 -4 15 -10 15 -5 0 -10 -4 -10 -9z"/>
<path d="M4190 3964 c0 -11 74 -74 86 -74 19 0 29 21 14 30 -6 4 -11 11 -10
16 1 4 -18 14 -42 21 -51 15 -48 15 -48 7z"/>
<path d="M3070 3799 c0 -5 5 -7 10 -4 6 3 10 8 10 11 0 2 -4 4 -10 4 -5 0 -10
-5 -10 -11z"/>
<path d="M3440 3230 c0 -5 5 -10 11 -10 5 0 7 5 4 10 -3 6 -8 10 -11 10 -2 0
-4 -4 -4 -10z"/>
<path d="M0 5601 l0 -139 31 -26 c34 -29 53 -32 69 -13 6 6 28 31 49 55 44 50
61 110 36 128 -9 6 -27 20 -41 30 -70 51 -101 74 -116 88 -10 9 -20 16 -23 16
-3 0 -5 -63 -5 -139z"/>
<path d="M100 4531 c0 -6 5 -13 10 -16 6 -3 10 1 10 9 0 9 -4 16 -10 16 -5 0
-10 -4 -10 -9z"/>
<path d="M170 4175 c32 -95 61 -154 75 -155 10 0 85 67 85 76 0 13 -30 61 -49
78 -15 13 -29 17 -51 13 -31 -7 -51 6 -76 49 -7 10 0 -17 16 -61z"/>
<path d="M1 3699 c-1 -294 0 -307 19 -324 11 -10 20 -23 20 -30 0 -6 16 -30
35 -52 19 -23 35 -48 35 -57 0 -9 7 -19 15 -22 8 -4 12 -10 9 -15 -3 -5 7 -20
22 -34 17 -15 22 -25 13 -25 -8 -1 -2 -11 15 -24 20 -16 27 -29 22 -41 -4 -12
0 -18 14 -22 11 -3 20 -13 19 -22 0 -10 -2 -11 -6 -3 -2 6 -10 12 -16 12 -6 0
1 -12 15 -27 14 -16 24 -33 22 -38 -2 -6 9 -25 26 -43 16 -18 30 -39 30 -45 0
-7 4 -6 11 3 9 13 10 13 8 0 -3 -35 2 -59 16 -74 8 -8 15 -22 15 -31 0 -8 6
-18 14 -21 8 -3 12 -12 9 -20 -8 -21 4 -57 27 -84 12 -14 19 -32 17 -42 -3 -9
0 -19 5 -20 7 -3 7 -11 -1 -26 -10 -19 -9 -22 6 -22 14 0 15 -2 4 -9 -10 -7
-11 -13 -2 -30 14 -25 7 -25 84 -5 34 8 75 26 92 39 l29 24 -27 10 c-27 11
-64 62 -91 125 -40 95 -110 236 -118 236 -4 0 -8 6 -8 13 0 11 -54 139 -109
260 -12 26 -26 47 -32 47 -6 0 -9 6 -6 14 3 8 -3 26 -14 39 -10 14 -19 37 -19
52 0 14 -5 36 -12 48 -7 12 -14 33 -16 45 -1 13 -13 49 -25 80 -11 32 -22 59
-22 62 -8 37 -45 143 -73 210 -19 47 -43 110 -53 140 l-18 55 0 -306z"/>
<path d="M5863 3374 c10 -11 110 -44 115 -39 5 5 -62 33 -97 42 -15 3 -22 2
-18 -3z"/>
<path d="M6010 3317 c29 -15 70 -27 70 -21 0 7 -67 34 -82 34 -7 0 -2 -6 12
-13z"/>
<path d="M5780 3235 c0 -8 5 -15 10 -15 6 0 10 7 10 15 0 8 -4 15 -10 15 -5 0
-10 -7 -10 -15z"/>
<path d="M5435 3020 c-3 -5 -1 -10 4 -10 6 0 11 5 11 10 0 6 -2 10 -4 10 -3 0
-8 -4 -11 -10z"/>
<path d="M5397 2993 c-12 -12 -7 -22 8 -17 8 4 15 10 15 15 0 11 -14 12 -23 2z"/>
<path d="M305 2860 c3 -5 8 -10 11 -10 2 0 4 5 4 10 0 6 -5 10 -11 10 -5 0 -7
-4 -4 -10z"/>
<path d="M1410 2745 c-19 -14 -38 -25 -43 -25 -5 0 -15 -6 -22 -12 -26 -24
-41 -33 -90 -59 -179 -92 -321 -159 -338 -159 -6 0 -23 -6 -37 -13 -24 -12
-67 -26 -185 -61 -27 -8 -74 -18 -103 -22 -46 -6 -58 -4 -83 15 -16 12 -29 17
-29 11 0 -5 -6 -9 -13 -7 -7 1 -12 -8 -12 -23 0 -18 6 -26 23 -28 12 -2 22 -7
22 -12 0 -16 -70 -58 -109 -66 -7 -1 -18 -7 -24 -13 -6 -6 -19 -11 -28 -11 -9
0 -22 -6 -28 -14 -12 -15 -52 -25 -114 -31 -28 -2 -40 2 -47 15 -11 20 -46 20
-94 1 -51 -20 -53 -29 -55 -256 -1 -224 -1 -230 55 -425 30 -103 26 -127 -21
-136 l-35 -6 1 -577 c0 -317 3 -570 6 -563 7 17 61 15 80 -3 17 -18 55 -134
47 -147 -9 -14 -54 -9 -54 6 0 8 -3 16 -7 18 -5 1 -23 20 -40 41 l-33 38 0
-71 c0 -67 1 -72 38 -110 33 -35 42 -40 83 -40 l47 0 -9 37 c-4 21 -6 40 -3
42 7 8 24 -20 31 -52 5 -26 9 -28 47 -25 l41 3 6 140 c5 136 12 177 31 202 11
14 4 202 -11 287 -11 61 -1 101 22 94 7 -2 39 -57 72 -121 33 -64 66 -122 72
-129 7 -6 13 -18 13 -25 0 -7 4 -13 9 -13 5 0 12 -17 16 -38 3 -21 14 -51 25
-66 18 -28 18 -28 35 -8 10 11 25 18 33 15 21 -9 8 56 -27 132 -87 188 -120
256 -153 317 -20 37 -42 84 -48 103 -6 19 -16 37 -21 40 -5 4 -9 21 -9 40 0
20 -6 35 -15 39 -23 8 -68 115 -61 142 5 19 20 27 79 44 177 52 201 75 76 75
-85 1 -99 7 -99 41 0 13 -4 24 -8 24 -5 0 -18 9 -30 20 -17 16 -22 17 -22 6 0
-8 -5 -18 -12 -22 -8 -5 -9 -2 -5 9 4 10 0 20 -11 26 -10 6 -12 11 -4 11 14 0
17 20 3 20 -21 0 -63 50 -58 69 3 13 -1 21 -14 24 -36 10 -15 77 24 77 12 0
39 5 60 11 34 9 37 12 31 37 -4 15 -11 30 -16 33 -5 3 -6 13 -3 21 4 9 2 19
-4 23 -7 4 -11 -4 -11 -20 0 -14 -4 -24 -9 -21 -5 3 -7 15 -4 25 3 14 -6 26
-33 45 -21 14 -45 26 -54 27 -8 1 -1 5 15 9 153 43 212 50 221 25 4 -8 12 -15
19 -15 7 0 15 -8 19 -17 3 -10 17 -33 30 -51 14 -18 22 -40 19 -51 -9 -37 70
-38 108 -2 17 15 16 20 -10 76 -16 33 -40 71 -55 84 -44 41 -43 42 314 145 85
24 175 47 200 51 25 4 61 15 80 25 36 19 166 60 188 60 7 0 11 4 7 9 -3 6 -34
1 -73 -10 -37 -11 -99 -24 -138 -29 -39 -5 -91 -17 -115 -28 -24 -11 -80 -30
-124 -42 -44 -13 -111 -33 -150 -46 -80 -25 -209 -54 -242 -54 -12 0 -24 8
-27 18 -4 10 -22 26 -41 35 -20 9 -38 24 -41 32 -8 20 13 45 40 46 23 1 108
37 90 38 -6 1 -37 -8 -69 -18 -41 -14 -65 -17 -82 -10 l-23 8 20 36 c24 43 24
44 3 44 -58 2 -94 8 -105 19 -9 9 -6 12 15 12 15 0 27 5 27 10 0 6 14 10 30
10 17 0 30 4 30 9 0 11 202 111 223 111 7 0 22 6 33 14 11 8 38 18 60 22 21 4
82 29 135 56 53 26 100 48 106 48 10 0 100 40 230 101 34 16 72 33 85 38 13 5
51 30 86 55 34 25 71 46 81 46 11 0 23 9 26 20 3 11 10 20 15 20 5 0 21 11 36
25 34 32 20 31 -26 0z m-1356 -731 c6 -6 30 -9 58 -6 47 4 48 4 48 -23 0 -16
-2 -26 -6 -23 -3 3 -26 -1 -51 -8 -71 -21 -83 -19 -83 16 0 17 5 30 10 30 7 0
7 6 0 19 -14 27 -12 51 2 26 6 -11 16 -25 22 -31z m141 -184 c-3 -5 -13 -10
-21 -10 -8 0 -14 5 -14 10 0 6 9 10 21 10 11 0 17 -4 14 -10z m-85 -15 c0 -8
-4 -15 -10 -15 -5 0 -10 7 -10 15 0 8 5 15 10 15 6 0 10 -7 10 -15z m47 -947
c5 -53 2 -67 -15 -88 -16 -20 -23 -22 -33 -13 -17 17 -12 132 7 162 23 33 35
15 41 -61z m-2 -277 c-10 -10 -34 10 -29 24 6 14 8 13 19 -2 8 -10 12 -20 10
-22z m119 -100 c22 -24 17 -65 -8 -69 -28 -6 -38 12 -31 52 8 41 15 44 39 17z"/>
<path d="M2430 2368 c0 -9 -3 -23 -6 -32 -3 -9 -1 -16 4 -16 16 0 26 40 13 53
-8 8 -11 7 -11 -5z"/>
<path d="M5091 2174 c0 -11 3 -14 6 -6 3 7 2 16 -1 19 -3 4 -6 -2 -5 -13z"/>
<path d="M1348 2123 c7 -3 16 -2 19 1 4 3 -2 6 -13 5 -11 0 -14 -3 -6 -6z"/>
<path d="M2458 1843 c7 -3 16 -2 19 1 4 3 -2 6 -13 5 -11 0 -14 -3 -6 -6z"/>
<path d="M2544 1835 c-5 -12 -18 -14 -56 -10 -45 4 -50 2 -58 -20 -5 -14 -17
-25 -27 -25 -22 0 -57 -37 -68 -69 -7 -22 -2 -37 42 -139 8 -18 18 -55 22 -83
5 -27 9 -53 11 -57 1 -4 4 -11 5 -17 5 -18 37 -180 42 -212 3 -18 9 -30 14
-27 5 3 9 -6 9 -20 0 -13 5 -37 12 -53 l11 -28 8 40 c13 64 0 244 -21 295 -10
25 -25 90 -34 145 -16 99 -16 100 5 117 24 20 42 14 67 -24 31 -46 83 -100 90
-93 14 14 2 151 -19 205 -11 30 -23 63 -26 73 -7 21 -22 22 -29 2z"/>
<path d="M5283 1623 c-20 -7 -16 -25 20 -79 19 -28 36 -58 40 -67 4 -10 19
-23 34 -30 15 -6 45 -31 67 -55 42 -45 74 -68 83 -58 4 3 -2 33 -12 66 -21 70
-67 124 -112 134 -19 4 -41 22 -59 46 -31 42 -42 50 -61 43z"/>
<path d="M330 1541 c-8 -5 -32 -11 -52 -15 -21 -4 -40 -10 -42 -15 -3 -5 14
-4 37 1 23 5 54 12 70 15 15 3 27 9 27 14 0 11 -20 11 -40 0z"/>
<path d="M0 1497 c0 -17 5 -27 15 -27 19 0 19 9 0 34 -14 19 -15 19 -15 -7z"/>
<path d="M495 1350 c3 -5 13 -10 21 -10 8 0 14 5 14 10 0 6 -9 10 -21 10 -11
0 -17 -4 -14 -10z"/>
<path d="M560 1341 c0 -5 9 -7 20 -4 11 3 20 7 20 9 0 2 -9 4 -20 4 -11 0 -20
-4 -20 -9z"/>
<path d="M521 1309 c-13 -11 -22 -22 -19 -24 2 -3 14 4 25 15 12 10 24 16 29
12 4 -4 4 -1 0 6 -9 15 -6 15 -35 -9z"/>
<path d="M1697 1233 c-4 -3 -7 -11 -7 -17 0 -6 5 -5 12 2 6 6 9 14 7 17 -3 3
-9 2 -12 -2z"/>
<path d="M1516 1053 c-53 -82 -128 -217 -206 -370 l-67 -132 81 -120 c45 -66
86 -121 92 -121 7 0 14 10 17 22 7 24 4 29 -85 160 -32 46 -58 92 -58 102 0
24 43 95 80 133 49 50 146 103 190 103 43 0 47 -5 151 -161 42 -62 62 -101 61
-120 -1 -43 -70 -141 -107 -152 -43 -14 -61 -33 -91 -94 -21 -42 -33 -55 -58
-61 l-31 -8 24 -20 c14 -10 35 -29 47 -42 l23 -23 45 69 c26 38 89 113 141
166 52 53 95 101 95 106 0 12 -75 154 -100 190 -10 14 -21 36 -25 49 -4 14
-20 46 -36 71 -36 59 -74 161 -83 223 -5 30 -12 47 -21 47 -8 0 -20 9 -28 20
-14 20 -16 18 -51 -37z"/>
<path d="M820 1075 c0 -8 5 -15 10 -15 6 0 10 7 10 15 0 8 -4 15 -10 15 -5 0
-10 -7 -10 -15z"/>
<path d="M6027 488 c-14 -46 -28 -99 -29 -118 l-3 -35 -70 3 c-46 2 -82 -2
-105 -11 -37 -16 -139 -89 -176 -126 -19 -19 -52 -105 -47 -122 1 -4 -9 -17
-22 -29 -40 -38 -32 -50 30 -50 30 0 55 2 55 4 0 2 -7 23 -15 47 -14 40 -14
48 0 86 27 71 120 133 199 133 40 0 56 -16 56 -56 0 -41 18 -55 81 -63 55 -6
61 -13 76 -71 l9 -35 27 41 c15 23 29 58 31 78 2 20 6 39 8 42 10 9 -30 79
-53 92 -20 13 -21 18 -14 85 12 102 12 180 0 184 -6 2 -23 -34 -38 -79z"/>
<path d="M1436 272 c-7 -11 19 -36 32 -30 5 1 1 11 -8 21 -10 10 -21 14 -24 9z"/>
<path d="M592 128 c2 -7 12 -39 22 -70 18 -52 22 -58 48 -58 15 0 28 4 28 9 0
16 -18 22 -23 9 -3 -7 -6 2 -6 20 -1 20 -12 47 -28 68 -28 34 -47 45 -41 22z"/>
<path d="M1490 120 c0 -13 34 -77 55 -104 29 -38 29 -3 0 52 -29 52 -55 77
-55 52z"/>
<path d="M6370 91 c0 -16 3 -43 6 -60 6 -27 10 -31 40 -31 19 0 34 2 34 4 0 9
-27 63 -44 89 -24 35 -36 34 -36 -2z"/>
</g>
</svg>
