<?xml version="1.0" standalone="no"?>
<!DOCTYPE svg PUBLIC "-//W3C//DTD SVG 20010904//EN"
 "http://www.w3.org/TR/2001/REC-SVG-20010904/DTD/svg10.dtd">
<svg version="1.0" xmlns="http://www.w3.org/2000/svg"
 width="736.000000pt" height="736.000000pt" viewBox="0 0 736.000000 736.000000"
 preserveAspectRatio="xMidYMid meet">

<g transform="translate(0.000000,736.000000) scale(0.100000,-0.100000)"
fill="#000000" stroke="none">
<path d="M0 5560 c0 -1539 2 -1801 14 -1806 8 -3 24 -28 36 -56 21 -49 21 -61
4 -131 -6 -25 0 -35 59 -93 36 -35 72 -64 79 -64 8 0 9 3 3 8 -13 9 -35 92
-35 130 0 28 29 63 61 75 24 8 56 -18 79 -63 36 -71 24 -109 -43 -138 -15 -7
-25 -17 -22 -22 3 -6 2 -10 -4 -10 -11 0 3 -49 17 -60 8 -6 21 -28 65 -108 36
-67 33 -102 -17 -206 -20 -40 -36 -85 -36 -99 0 -14 14 -55 30 -92 32 -72 39
-142 19 -205 -11 -34 -14 -320 -4 -385 8 -58 30 -692 27 -815 l-3 -125 -32
-27 c-39 -34 -115 -60 -158 -56 -43 4 -57 42 -41 107 8 32 11 198 9 541 -3
396 -1 511 11 575 17 100 12 153 -28 252 -28 70 -31 84 -24 148 17 176 16 182
-6 242 -12 32 -27 73 -33 90 -5 18 -14 33 -19 33 -4 0 -8 -720 -8 -1600 l0
-1600 2053 0 2052 0 13 27 c10 23 10 28 -4 36 -10 5 -30 23 -47 38 -16 16 -38
29 -48 29 -27 0 -23 13 10 32 40 22 124 40 386 82 304 49 445 60 658 52 122
-5 177 -4 172 3 -35 58 -333 121 -570 121 -93 0 -92 0 -560 -111 -204 -48
-275 -58 -275 -40 0 4 21 16 48 26 26 10 56 26 68 36 11 11 27 19 35 19 12 0
47 11 118 35 11 4 10 10 -3 29 -12 18 -12 26 -3 29 6 3 -3 6 -21 6 -30 1 -70
-14 -82 -31 -3 -4 -19 -7 -35 -7 -17 1 -55 -1 -85 -4 -30 -2 -48 -2 -40 1 8 3
20 11 25 18 6 7 21 15 35 17 14 2 36 8 50 14 82 33 365 122 469 146 33 8 276
-9 350 -24 33 -7 64 -10 67 -6 6 6 -11 395 -21 472 -2 17 -6 55 -10 85 -10 96
-56 273 -82 318 -26 45 -114 117 -193 157 -25 12 -92 32 -150 43 -209 41 -437
82 -550 98 -135 19 -158 28 -117 43 35 14 122 14 202 1 33 -5 103 -14 155 -19
359 -38 428 -53 557 -121 54 -29 106 -61 115 -73 19 -25 24 -44 72 -262 62
-284 69 -343 69 -557 l-1 -198 37 -10 c80 -21 101 -23 102 -9 8 97 -21 609
-42 759 -16 117 -60 300 -84 355 -24 56 -109 153 -160 185 -22 14 -76 28 -152
39 -199 31 -411 76 -375 79 28 3 32 7 29 27 -1 13 -5 27 -9 30 -3 3 -58 16
-122 29 -65 13 -120 27 -123 30 -18 17 225 -9 352 -39 94 -21 185 -30 185 -16
0 6 -4 11 -9 11 -9 0 -7 31 5 75 3 11 23 66 45 122 42 108 48 163 24 209 -8
15 -13 30 -11 32 8 7 222 -71 233 -86 7 -8 11 -26 9 -39 -3 -13 0 -23 5 -23 5
0 9 8 9 19 0 14 6 17 28 14 21 -4 24 -2 12 6 -18 13 -1 14 19 2 12 -8 8 -11
-15 -17 -16 -4 -34 -14 -41 -23 -14 -20 -22 -102 -25 -270 l-2 -133 47 -35
c78 -58 100 -117 146 -393 22 -129 44 -300 50 -380 40 -526 34 -488 79 -495
83 -12 182 -37 182 -46 0 -5 20 -9 45 -9 l45 0 0 -60 c0 -47 4 -64 20 -80 11
-11 24 -20 28 -20 4 0 13 -14 20 -32 11 -31 12 -31 32 -13 13 12 20 14 20 6 0
-17 41 -50 63 -51 9 0 17 -4 17 -9 0 -5 9 -13 20 -16 11 -3 20 -15 20 -26 0
-10 5 -19 10 -19 21 0 83 -69 76 -85 -4 -12 -1 -16 11 -13 23 4 68 -39 68 -66
0 -18 7 -22 45 -25 25 -2 75 -4 113 -3 37 0 91 0 120 0 28 1 70 1 92 2 99 4
185 -3 210 -17 14 -8 35 -9 67 -3 61 12 347 14 526 5 109 -6 142 -11 142 -21
0 -11 26 -14 120 -14 l120 0 0 520 c0 323 -4 520 -10 520 -5 0 -21 -12 -35
-26 -25 -25 -27 -26 -160 -22 -85 2 -138 7 -146 15 -15 15 -3 63 16 63 8 0 15
5 15 11 0 8 24 9 78 4 69 -6 80 -4 104 14 28 22 58 28 58 11 0 -5 18 -10 40
-10 l40 0 0 110 0 110 -52 1 c-69 1 -116 18 -131 49 -9 17 -22 26 -42 28 -70
6 -437 10 -514 5 -74 -5 -88 -9 -111 -32 -56 -55 -78 -72 -101 -77 -13 -3 -34
-8 -47 -11 -29 -7 -104 31 -153 77 -20 19 -62 59 -93 88 -31 29 -56 57 -56 63
0 5 -9 9 -19 9 -11 0 -22 9 -26 20 -10 32 -56 57 -125 70 -108 21 -111 22
-126 65 -17 50 -18 82 -1 92 16 10 49 82 68 148 8 29 14 92 13 150 -1 130 -7
229 -14 210 -4 -10 -9 -5 -18 18 -7 17 -18 41 -24 51 -20 37 -61 151 -62 174
0 12 -4 22 -7 22 -9 0 -39 82 -39 107 0 12 -5 25 -11 28 -6 4 -8 13 -5 20 3 8
1 29 -5 47 -5 18 -11 60 -14 93 -3 33 -9 76 -14 95 l-8 35 -16 -36 c-9 -20
-19 -74 -22 -120 -7 -94 -38 -182 -92 -265 -31 -49 -43 -94 -24 -94 5 0 16
-15 25 -33 9 -17 25 -45 36 -62 10 -16 19 -40 19 -51 1 -12 7 -27 15 -33 8 -6
17 -26 20 -44 16 -74 25 -231 17 -285 -5 -31 -9 -46 -10 -32 -3 51 -12 69 -35
67 -18 -2 -21 3 -19 28 1 17 -1 22 -4 13 -3 -14 -15 -18 -48 -18 -26 0 -45 -5
-48 -12 -4 -10 -7 -10 -18 -1 -11 11 -10 13 4 13 9 0 17 5 17 10 0 6 18 10 40
10 22 0 40 3 40 8 -1 12 -70 52 -91 52 -15 0 -19 7 -19 36 0 39 -16 59 -64 83
-22 11 -31 23 -32 41 0 14 -1 31 -2 38 -2 14 -33 12 -44 -3 -5 -6 -8 -4 -9 5
0 12 -2 11 -7 -2 -6 -15 -10 -14 -31 8 -18 18 -19 23 -6 17 13 -4 16 -3 11 5
-5 8 -2 10 8 6 9 -4 16 -1 16 6 0 9 -10 11 -30 6 -19 -3 -29 -2 -25 4 3 6 17
10 29 10 18 0 149 60 165 75 2 2 -11 18 -28 35 -22 23 -31 41 -31 65 0 43 -22
94 -56 128 -24 24 -28 38 -34 115 -7 82 1 189 15 212 11 18 78 47 149 65 88
22 135 42 142 59 3 8 -1 29 -9 48 -14 34 -17 35 -85 42 -68 7 -70 8 -76 38 -9
43 12 71 71 93 26 10 94 40 151 66 57 27 119 51 138 55 33 6 34 7 28 43 -8 45
-11 48 -27 28 -14 -19 -29 -12 -45 20 -10 18 -9 22 6 26 39 10 -46 6 -98 -5
-49 -10 -63 -9 -101 6 -24 10 -47 23 -51 29 -11 17 1 55 34 114 35 63 67 90
117 99 20 4 45 14 56 23 11 9 47 28 80 41 80 31 135 63 169 99 28 29 29 31 15
68 -11 28 -23 40 -45 46 -17 5 -43 19 -58 31 -26 20 -27 27 -30 116 -4 99 -12
130 -105 387 -43 120 -117 279 -178 383 l-38 65 0 195 0 195 27 38 c51 72 30
219 -37 266 -30 20 -40 22 -73 14 -34 -9 -41 -7 -60 13 -16 19 -31 24 -69 24
-26 0 -79 5 -118 10 -102 14 -345 72 -339 81 2 4 -13 6 -33 4 l-38 -5 33 9
c18 5 36 12 40 16 4 3 -5 4 -21 0 -23 -6 -27 -4 -27 15 0 12 -7 36 -15 53 -8
18 -16 48 -18 67 -4 33 -4 33 -5 -7 -1 -24 -7 -43 -13 -43 -8 0 -9 22 -5 73 5
49 3 82 -5 102 -7 17 -11 34 -10 39 1 4 3 25 5 45 2 20 14 65 25 101 30 90 57
201 71 290 6 41 16 95 21 120 6 25 14 65 20 89 5 24 14 50 20 57 6 7 8 18 4
24 -3 5 -3 16 1 22 6 9 11 5 16 -12 6 -19 7 -17 3 10 -3 22 1 42 10 54 8 11
15 17 15 13 0 -4 12 6 28 23 46 52 250 109 496 140 49 6 94 14 100 18 17 10
35 11 42 1 10 -17 20 -9 43 32 15 27 26 37 31 29 5 -8 21 -1 54 24 48 36 52
37 114 9 25 -11 32 -20 32 -41 0 -16 11 -37 28 -54 70 -68 110 -105 134 -122
39 -29 115 -186 177 -366 32 -94 38 -105 60 -105 35 0 59 -46 81 -157 23 -112
60 -386 60 -440 0 -38 -2 -40 -57 -64 -31 -14 -84 -32 -117 -41 -34 -8 -100
-28 -149 -44 -48 -16 -126 -34 -175 -40 -148 -19 -132 -7 -199 -159 -33 -76
-38 -96 -41 -189 -4 -96 -3 -104 13 -97 14 5 16 2 11 -16 -16 -54 -18 -88 -6
-122 6 -20 16 -36 21 -36 6 0 8 -4 5 -8 -3 -5 4 -26 14 -48 16 -32 31 -43 78
-62 75 -31 102 -37 102 -23 0 6 5 11 10 11 21 0 53 45 65 91 7 27 11 49 8 49
-3 0 0 7 7 15 10 12 -4 14 -107 11 -65 -2 -127 -6 -138 -10 -11 -3 -6 0 10 8
17 8 36 15 43 16 7 0 34 10 60 21 26 12 63 23 82 24 19 1 53 11 75 21 l40 19
3 68 3 67 49 0 c41 0 50 -3 51 -17 0 -12 4 -8 11 10 14 38 28 24 28 -27 0 -39
-5 -48 -51 -90 -28 -26 -49 -50 -46 -52 10 -10 78 29 95 53 9 14 25 33 35 44
9 10 17 24 17 30 0 5 4 7 10 4 5 -3 8 0 5 7 -2 7 13 45 34 83 21 39 53 98 71
132 18 35 36 60 41 58 4 -3 10 5 12 17 3 18 5 16 6 -8 0 -16 -5 -36 -11 -42
-9 -9 -10 -15 -2 -20 16 -10 10 -77 -11 -143 -22 -67 -105 -243 -116 -247 -5
-2 -9 -18 -9 -34 0 -37 30 -138 41 -138 4 0 20 22 36 50 15 27 31 50 36 50 4
0 7 8 7 18 1 15 2 15 15 -2 8 -11 12 -28 9 -38 -8 -28 -13 -148 -5 -152 3 -2
5 -51 4 -108 -1 -87 -7 -120 -36 -208 -19 -58 -48 -157 -66 -220 -52 -187 -71
-240 -123 -344 -27 -55 -67 -154 -89 -220 -21 -67 -44 -134 -50 -151 -6 -16
-13 -39 -16 -50 -9 -31 93 71 134 135 20 30 39 57 43 60 30 20 99 198 152 395
19 68 23 76 30 55 6 -18 7 -15 3 15 -3 32 -2 36 6 22 6 -10 8 -33 5 -50 -11
-59 -21 -429 -27 -927 0 -8 2 -80 5 -160 2 -89 0 -147 -6 -151 -5 -3 -12 -82
-15 -175 -5 -149 -4 -171 11 -183 9 -7 16 -19 17 -25 0 -6 25 -30 55 -54 37
-29 57 -53 61 -73 3 -15 13 -31 23 -34 10 -3 21 -17 24 -30 4 -14 12 -25 19
-25 16 0 87 -71 87 -87 0 -7 16 -17 35 -24 30 -11 36 -19 41 -51 4 -21 12 -38
18 -38 7 0 24 -6 39 -12 21 -10 27 -20 27 -45 0 -22 6 -36 21 -43 13 -7 19
-19 17 -33 -2 -12 5 -31 14 -41 17 -19 19 -19 31 -2 13 17 15 17 35 -9 12 -15
22 -34 22 -41 0 -8 5 -14 10 -14 6 0 10 -16 10 -36 0 -27 5 -37 20 -41 11 -3
20 -11 20 -18 0 -6 9 -20 19 -29 15 -13 20 -14 24 -4 4 8 8 5 12 -9 4 -13 11
-23 15 -23 5 0 11 -18 15 -40 4 -25 12 -40 21 -40 9 0 14 -11 14 -31 0 -23 4
-30 14 -26 8 3 22 -1 33 -8 10 -8 30 -15 45 -15 17 0 29 -7 32 -18 7 -20 74
-62 100 -62 15 0 16 175 16 2105 l0 2105 -22 1 c-56 1 -207 10 -243 14 -22 2
-91 6 -154 8 l-114 5 -2 168 c-3 156 -12 288 -50 709 -26 294 -28 368 -11 390
15 19 15 19 16 -12 0 -17 5 -35 10 -38 7 -4 7 -13 0 -26 -7 -11 -16 -17 -23
-12 -8 4 -7 1 1 -10 8 -9 12 -29 9 -44 -2 -15 -2 -22 0 -15 3 7 8 10 12 7 5
-2 6 6 4 19 -5 24 26 66 48 66 6 0 9 6 6 13 -2 6 -10 11 -16 9 -6 -1 -11 2
-11 8 0 6 -6 9 -12 8 -9 -2 -12 9 -11 31 1 24 -1 30 -8 20 -7 -12 -9 -12 -9 0
0 9 -6 7 -19 -7 -18 -22 -18 -22 -24 26 -3 26 -12 65 -19 87 l-13 40 -3353 3
-3352 2 0 -1800z m6514 435 c-2 -25 -10 -57 -17 -71 -13 -24 -14 -24 -28 -8
-9 11 -9 15 -1 10 8 -5 12 0 12 18 0 14 4 27 9 30 4 3 11 19 14 36 10 45 16
36 11 -15z m-164 -184 c0 -18 -81 -99 -106 -105 -46 -12 -47 9 -2 45 74 60
108 79 108 60z m-2060 -351 c0 -36 -20 -39 -68 -10 -42 26 -33 40 24 40 42 0
44 -1 44 -30z m40 10 c0 -5 -2 -10 -4 -10 -3 0 -8 5 -11 10 -3 6 -1 10 4 10 6
0 11 -4 11 -10z m1548 -36 c-4 -35 -27 -41 -58 -16 l-23 18 34 22 c39 24 52
17 47 -24z m42 26 c0 -11 -4 -20 -9 -20 -11 0 -22 26 -14 34 12 12 23 5 23
-14z m-1436 -141 c27 -15 35 -26 32 -42 -3 -16 -10 -21 -27 -19 -42 5 -75 53
-52 75 9 9 7 10 47 -14z m-274 -14 c0 -18 -43 -30 -67 -20 -17 7 -9 12 65 34
1 1 2 -6 2 -14z m1590 -15 c0 -10 -68 -26 -77 -17 -3 3 10 10 28 16 45 12 49
13 49 1z m-1229 -10 c5 0 9 -4 9 -10 0 -5 -11 -10 -25 -10 -16 0 -25 6 -25 16
0 11 5 14 16 10 9 -3 20 -6 25 -6z m1626 -1231 c-16 -45 -76 -160 -93 -178 -7
-8 13 38 44 102 56 116 72 141 49 76z m-116 -222 c-10 -9 -11 -8 -5 6 3 10 9
15 12 12 3 -3 0 -11 -7 -18z m-5220 -154 c16 -42 4 -216 -20 -288 -11 -33 -20
-78 -20 -100 l0 -40 30 38 c30 36 61 48 74 27 3 -5 12 -44 20 -86 12 -59 13
-90 5 -138 -6 -33 -14 -126 -18 -205 -7 -115 -12 -146 -25 -156 -21 -15 -184
-13 -214 3 -12 7 -48 12 -80 12 -73 0 -129 15 -146 40 -10 14 -11 34 -6 72 4
29 13 99 20 156 l12 103 -39 57 c-22 31 -42 59 -46 60 -5 2 -8 12 -8 23 0 10
-4 19 -10 19 -14 0 -12 50 3 76 17 30 69 72 111 89 21 9 48 33 66 61 18 25 55
61 84 79 28 18 64 48 80 67 26 30 71 55 104 57 7 1 17 -11 23 -26z m1290 -376
c-7 -17 -17 -70 -22 -117 -16 -164 -30 -178 -50 -50 -12 75 -11 75 19 126 16
28 33 61 37 73 5 17 10 20 18 12 8 -8 8 -20 -2 -44z m-107 -252 c3 -13 9 -52
13 -86 6 -57 5 -62 -11 -56 -10 4 -20 7 -22 7 -2 0 -4 36 -4 80 0 78 12 105
24 55z m3656 -683 c0 -15 -2 -15 -10 -2 -13 20 -13 33 0 25 6 -3 10 -14 10
-23z m-743 -18 c-3 -3 -12 -4 -19 -1 -8 3 -5 6 6 6 11 1 17 -2 13 -5z m769
-60 c-4 -37 -16 -42 -16 -6 0 16 -3 39 -6 49 -5 17 -5 17 9 0 9 -10 14 -30 13
-43z m-588 39 c-10 -2 -26 -2 -35 0 -10 3 -2 5 17 5 19 0 27 -2 18 -5z m606
-94 c-6 -34 -4 -42 15 -56 17 -11 21 -21 16 -40 -3 -14 -2 -22 3 -19 12 7 22
-42 22 -108 0 -45 -11 -104 -38 -211 -10 -37 -46 -50 -37 -13 23 100 28 253
12 358 -9 55 -11 96 -6 98 5 2 9 10 9 18 0 8 2 14 5 14 3 0 2 -18 -1 -41z m-4
-514 c0 -19 -4 -35 -10 -35 -5 0 -10 16 -10 35 0 19 5 35 10 35 6 0 10 -16 10
-35z m-5520 -656 c0 -6 7 -9 15 -6 22 9 67 -50 55 -72 -5 -10 -7 -21 -3 -24 3
-4 -7 -11 -22 -17 -33 -13 -50 -2 -71 48 -15 38 -9 82 12 82 8 0 14 -5 14 -11z
m6694 5 c25 -9 19 -24 -9 -24 -16 0 -25 6 -25 15 0 16 9 19 34 9z m373 -166
c-2 -13 -4 -3 -4 22 0 25 2 35 4 23 2 -13 2 -33 0 -45z m-237 -58 c0 -22 -4
-40 -10 -40 -5 0 -10 18 -10 40 0 22 5 40 10 40 6 0 10 -18 10 -40z m130 -46
c0 -3 -5 -14 -10 -25 -9 -15 -15 -17 -30 -9 -31 17 -25 40 10 40 17 0 30 -3
30 -6z"/>
<path d="M5750 2144 c0 -8 5 -12 10 -9 6 3 10 10 10 16 0 5 -4 9 -10 9 -5 0
-10 -7 -10 -16z"/>
<path d="M7037 7346 c-4 -10 2 -16 16 -18 12 -2 26 -13 32 -25 5 -13 13 -23
17 -23 5 0 8 -9 8 -20 0 -18 2 -19 23 -8 12 7 24 13 27 13 18 2 43 25 36 32
-5 4 -11 2 -13 -4 -8 -22 -43 -15 -43 7 0 11 -4 20 -9 20 -5 0 -13 9 -16 20
-8 24 -70 29 -78 6z"/>
<path d="M7217 7333 c-12 -11 -8 -21 13 -26 15 -4 20 0 20 14 0 18 -20 26 -33
12z"/>
<path d="M6752 7255 c0 -16 2 -22 5 -12 2 9 2 23 0 30 -3 6 -5 -1 -5 -18z"/>
<path d="M6762 7140 c0 -14 2 -19 5 -12 2 6 2 18 0 25 -3 6 -5 1 -5 -13z"/>
<path d="M6882 7125 c0 -16 2 -22 5 -12 2 9 2 23 0 30 -3 6 -5 -1 -5 -18z"/>
<path d="M6843 5960 c0 -25 2 -35 4 -22 2 12 2 32 0 45 -2 12 -4 2 -4 -23z"/>
<path d="M4828 5893 c6 -2 18 -2 25 0 6 3 1 5 -13 5 -14 0 -19 -2 -12 -5z"/>
<path d="M6221 5344 c0 -11 3 -14 6 -6 3 7 2 16 -1 19 -3 4 -6 -2 -5 -13z"/>
<path d="M6192 4268 c-6 -23 -9 -44 -7 -46 2 -2 9 15 15 38 6 23 9 44 7 46 -2
3 -9 -14 -15 -38z"/>
<path d="M6036 3705 c-11 -8 -15 -15 -9 -15 6 0 16 7 23 15 16 19 11 19 -14 0z"/>
<path d="M5955 3559 c-4 -6 -5 -12 -2 -15 2 -3 7 2 10 11 7 17 1 20 -8 4z"/>
<path d="M5940 3520 c0 -5 5 -10 11 -10 5 0 7 5 4 10 -3 6 -8 10 -11 10 -2 0
-4 -4 -4 -10z"/>
<path d="M5902 3457 c-18 -21 -122 -231 -122 -244 0 -7 3 -12 8 -12 29 5 32
-3 29 -93 -3 -147 3 -248 21 -320 9 -38 19 -68 23 -68 3 0 4 87 1 194 -4 154
-2 195 9 201 8 5 14 4 17 -4 3 -8 12 -21 21 -30 9 -9 15 -23 13 -32 -2 -13 9
-17 55 -22 32 -3 59 -11 61 -17 2 -5 12 -10 22 -10 10 0 22 -4 25 -10 8 -13
45 -13 45 0 0 6 -13 24 -29 41 -19 19 -27 37 -24 46 4 10 2 14 -5 10 -19 -13
-102 124 -102 168 0 14 -4 25 -9 25 -9 0 -14 22 -29 127 -9 60 -15 69 -30 50z"/>
<path d="M5747 3163 c-4 -3 -7 -11 -7 -17 0 -6 5 -5 12 2 6 6 9 14 7 17 -3 3
-9 2 -12 -2z"/>
<path d="M5715 3100 c-3 -5 -1 -10 4 -10 6 0 11 5 11 10 0 6 -2 10 -4 10 -3 0
-8 -4 -11 -10z"/>
<path d="M5855 2650 c-3 -5 1 -10 10 -10 9 0 13 5 10 10 -3 6 -8 10 -10 10 -2
0 -7 -4 -10 -10z"/>
<path d="M5425 2450 c-3 -5 1 -10 9 -10 9 0 16 5 16 10 0 6 -4 10 -9 10 -6 0
-13 -4 -16 -10z"/>
<path d="M5270 2340 c-12 -8 -10 -10 8 -10 13 0 20 4 17 10 -7 12 -6 12 -25 0z"/>
<path d="M4225 497 c-69 -11 -79 -21 -58 -53 19 -29 44 -37 86 -28 28 6 30 8
12 15 -18 7 -17 8 7 8 24 1 53 21 30 21 -6 0 -8 8 -5 19 7 26 -3 29 -72 18z
m12 -39 c-3 -7 -5 -2 -5 12 0 14 2 19 5 13 2 -7 2 -19 0 -25z"/>
<path d="M5170 476 c0 -2 7 -7 16 -10 8 -3 12 -2 9 4 -6 10 -25 14 -25 6z"/>
<path d="M5508 313 c6 -2 18 -2 25 0 6 3 1 5 -13 5 -14 0 -19 -2 -12 -5z"/>
<path d="M4790 65 c-8 -2 -94 -16 -190 -32 l-175 -28 238 -3 c131 -1 343 -1
470 0 l232 3 -155 29 c-142 27 -371 43 -420 31z"/>
</g>
</svg>
